<svg xmlns="http://www.w3.org/2000/svg" viewBox="0 0 128.21 61.6"><defs><style>.cls-1{fill:#fff;}</style></defs><title>Asset 5</title><g id="Layer_2" data-name="Layer 2"><g id="Layer_1-2" data-name="Layer 1"><path class="cls-1" d="M128.07,40.9a1.48,1.48,0,0,0-1.37-.85l-28.9.35-14-12.51a1.5,1.5,0,0,0-1-.38H67.37a1.43,1.43,0,0,0-.17-.26l-7.89-8.16a1.5,1.5,0,0,0-.95-.44V6.83a1.5,1.5,0,1,0-3,0V18.63H34V15a1.5,1.5,0,0,0-1.5-1.5H31V1.5a1.5,1.5,0,0,0-3,0v12H26.42a1.5,1.5,0,0,0-1.5,1.5v3.63H21.75a1.5,1.5,0,0,0-1.45,1.1L18.15,27.5H16.38a1.5,1.5,0,0,0-1.43,1l-4.16,12.9-9.31.11a1.5,1.5,0,0,0-1.36,2.1l7.5,17A1.5,1.5,0,0,0,9,61.6H111.3a1.5,1.5,0,0,0,1.15-.54l15.41-18.55A1.5,1.5,0,0,0,128.07,40.9ZM27.92,16.5H31v2.13H27.92Zm-5,5.13H57.6l5.68,5.88h-42ZM17.47,30.5H82.2l11.15,9.95L14,41.4ZM110.6,58.6H10L3.79,44.52l119.7-1.43Z"/><path class="cls-1" d="M29.55,32.42H23.3a3.58,3.58,0,0,0,0,7.17h6.25a3.58,3.58,0,0,0,0-7.17Zm0,4.17H23.3a.58.58,0,1,1,0-1.17h6.25a.58.58,0,0,1,0,1.17Z"/><path class="cls-1" d="M46.8,32.42H40.55a3.58,3.58,0,0,0,0,7.17H46.8a3.58,3.58,0,0,0,0-7.17Zm0,4.17H40.55a.58.58,0,1,1,0-1.17H46.8a.58.58,0,0,1,0,1.17Z"/><path class="cls-1" d="M64,32.42H57.8a3.58,3.58,0,0,0,0,7.17H64a3.58,3.58,0,0,0,0-7.17Zm0,4.17H57.8a.58.58,0,1,1,0-1.17H64a.58.58,0,0,1,0,1.17Z"/><path class="cls-1" d="M81.3,32.42H75a3.58,3.58,0,0,0,0,7.17H81.3a3.58,3.58,0,0,0,0-7.17Zm0,4.17H75a.58.58,0,1,1,0-1.17H81.3a.58.58,0,0,1,0,1.17Z"/></g></g></svg>