<svg xmlns="http://www.w3.org/2000/svg" viewBox="0 0 75.96 99.75"><defs><style>.cls-1{fill:#4783c4;}</style></defs><title>Asset 3</title><g id="Layer_2" data-name="Layer 2"><g id="Layer_1-2" data-name="Layer 1"><path class="cls-1" d="M32.87,20.81H26.52a1.5,1.5,0,0,0-1.5,1.5v6.35a1.5,1.5,0,0,0,1.5,1.5h6.35a1.5,1.5,0,0,0,1.5-1.5V22.31A1.5,1.5,0,0,0,32.87,20.81Zm-1.5,6.35H28V23.81h3.35Z"/><path class="cls-1" d="M45.11,20.81H38.76a1.5,1.5,0,0,0-1.5,1.5v6.35a1.5,1.5,0,0,0,1.5,1.5h6.35a1.5,1.5,0,0,0,1.5-1.5V22.31A1.5,1.5,0,0,0,45.11,20.81Zm-1.5,6.35H40.26V23.81h3.35Z"/><path class="cls-1" d="M8.37,84.1,11,86.74a7.11,7.11,0,0,0,10.05,0l2.64-2.64a4.11,4.11,0,0,1,5.81,0l2.64,2.64a7.08,7.08,0,0,0,2.59,1.65,1.46,1.46,0,0,0,1.49.36,7.18,7.18,0,0,0,.95.07,7.06,7.06,0,0,0,5-2.08l2.64-2.64a4.11,4.11,0,0,1,5.81,0l2.64,2.64a7.11,7.11,0,0,0,10.05,0L66,84.1a4.11,4.11,0,0,1,5.81,0A1.5,1.5,0,0,0,74,82,7.12,7.12,0,0,0,63.9,82l-2.64,2.64a4.06,4.06,0,0,1-2.34,1.15L67.64,54.2a1.5,1.5,0,0,0-.83-1.77L59.5,49.11V33.48A1.5,1.5,0,0,0,58,32H54V17.49a1.5,1.5,0,0,0-1.5-1.5H41.76V1.5A1.5,1.5,0,0,0,40.26,0H31.37a1.5,1.5,0,0,0-1.5,1.5V16H19.09a1.5,1.5,0,0,0-1.5,1.5V32h-4a1.5,1.5,0,0,0-1.5,1.5V49.11L4.81,52.44A1.5,1.5,0,0,0,4,54.2l8.13,29.4L10.49,82A7.12,7.12,0,0,0,.44,82,1.5,1.5,0,0,0,2.56,84.1,4.11,4.11,0,0,1,8.37,84.1Zm47.62,1a4.13,4.13,0,0,1-.55-.45L52.8,82a7.12,7.12,0,0,0-10.05,0L40.1,84.62a4.07,4.07,0,0,1-2.78,1.19V42.34l27.09,12.3ZM32.87,3h5.89V16H32.87ZM20.59,19H51V32H20.59ZM15.13,35H56.5V47.75L36.44,38.64h0l-.25-.08h0a1.47,1.47,0,0,0-.62,0h0l-.25.08h0L15.13,47.75Zm19.19,7.36v42.3l0,0L31.65,82a7.12,7.12,0,0,0-10.05,0l-2.64,2.64A4.08,4.08,0,0,1,16,85.82l-.2,0L7.22,54.64Z"/><path class="cls-1" d="M75.52,92.9a7.12,7.12,0,0,0-10.05,0l-2.64,2.64a4.12,4.12,0,0,1-5.81,0L54.36,92.9a7.12,7.12,0,0,0-10.05,0l-2.64,2.64a4.11,4.11,0,0,1-5.81,0L33.21,92.9a7.12,7.12,0,0,0-10.05,0l-2.64,2.64a4.11,4.11,0,0,1-5.81,0L12.06,92.9A7.12,7.12,0,0,0,2,92.9,1.5,1.5,0,1,0,4.13,95a4.11,4.11,0,0,1,5.81,0l2.64,2.64a7.12,7.12,0,0,0,10.05,0L25.28,95a4.11,4.11,0,0,1,5.81,0l2.64,2.64a7.12,7.12,0,0,0,10.05,0L46.43,95a4.11,4.11,0,0,1,5.81,0l2.64,2.64a7.12,7.12,0,0,0,10.05,0L67.58,95a4.11,4.11,0,0,1,5.81,0,1.5,1.5,0,1,0,2.12-2.12Z"/></g></g></svg>