<svg xmlns="http://www.w3.org/2000/svg" viewBox="0 0 81.25 96.75"><defs><style>.cls-1{fill:#fff;}</style></defs><title>Asset 6</title><g id="Layer_2" data-name="Layer 2"><g id="Layer_1-2" data-name="Layer 1"><path class="cls-1" d="M80,48.53a10.65,10.65,0,0,1-7.69-4.79,19.79,19.79,0,0,1-2.68-6.24l0-.12c-3.19-12.58,1.12-31.1,1.17-31.32A1.5,1.5,0,0,0,70,4.41L62.15.18l-.06,0L61.93.09,61.8,0l-.18,0h-42l-.18,0-.12,0-.17.07-.06,0L11.27,4.41a1.5,1.5,0,0,0-.75,1.67c.05.22,4.36,18.74,1.17,31.32l0,.12A19.79,19.79,0,0,1,9,43.75a10.65,10.65,0,0,1-7.69,4.79A1.5,1.5,0,0,0,0,50V95.25a1.5,1.5,0,0,0,1.5,1.5H79.75a1.5,1.5,0,0,0,1.5-1.5V50A1.5,1.5,0,0,0,80,48.53ZM62.28,3.66l5.28,2.85c-.88,4.12-3.55,18.37-1.31,29.76H42.13V34.1C45.19,32.56,54.2,26.3,62.28,3.66Zm6.08,39.26H42.13V39.27H67A24.83,24.83,0,0,0,68.36,42.92ZM39.13,93.75H3V89.38H39.13Zm0-7.36H3V82.73H39.13Zm0-6.65H3V77.2H39.13Zm0-5.53H3V70.55H39.13Zm0-6.65H3V51.27a13.53,13.53,0,0,0,8.11-5.35h28Zm0-24.63H12.9a24.84,24.84,0,0,0,1.38-3.65H39.13Zm0-6.65H15c2.24-11.4-.43-25.64-1.31-29.76L19,3.66C27.05,26.3,36.06,32.56,39.13,34.1Zm1.5-4.78c-2-1-10.71-6.33-18.69-28.49H59.32C51.34,25.17,42.65,30.51,40.63,31.49ZM78.25,93.75H42.13V89.38H78.25Zm0-7.36H42.13V82.73H78.25Zm0-6.65H42.13V77.2H78.25Zm0-5.53H42.13V70.55H78.25Zm0-6.65H42.13V45.92h28a13.53,13.53,0,0,0,8.11,5.35Z"/></g></g></svg>