<svg xmlns="http://www.w3.org/2000/svg" viewBox="0 0 85.14 85.14"><defs><style>.cls-1{fill:#fff;}</style></defs><title>Asset 7</title><g id="Layer_2" data-name="Layer 2"><g id="Layer_1-2" data-name="Layer 1"><path class="cls-1" d="M42.57,0A42.57,42.57,0,1,0,85.14,42.57,42.62,42.62,0,0,0,42.57,0Zm0,82.14A39.57,39.57,0,1,1,82.14,42.57,39.62,39.62,0,0,1,42.57,82.14Z"/><path class="cls-1" d="M42.57,13.74A28.84,28.84,0,1,0,71.41,42.57,28.87,28.87,0,0,0,42.57,13.74Zm0,54.67A25.84,25.84,0,1,1,68.41,42.57,25.87,25.87,0,0,1,42.57,68.41Z"/><path class="cls-1" d="M42.57,12.88a4.44,4.44,0,1,0-4.44-4.44A4.45,4.45,0,0,0,42.57,12.88Zm0-5.89a1.44,1.44,0,1,1-1.44,1.44A1.45,1.45,0,0,1,42.57,7Z"/><path class="cls-1" d="M18.43,22.88a4.44,4.44,0,0,0,3.14-7.58h0a4.44,4.44,0,1,0-3.14,7.58Zm-1-5.46a1.44,1.44,0,0,1,2,2,1.48,1.48,0,0,1-2,0A1.45,1.45,0,0,1,17.41,17.41Z"/><path class="cls-1" d="M8.44,38.13a4.44,4.44,0,1,0,4.44,4.44A4.45,4.45,0,0,0,8.44,38.13Zm0,5.89a1.44,1.44,0,1,1,1.44-1.44A1.45,1.45,0,0,1,8.44,44Z"/><path class="cls-1" d="M18.43,62.26a4.44,4.44,0,1,0,3.14,1.3A4.41,4.41,0,0,0,18.43,62.26Zm1,5.46a1.48,1.48,0,0,1-2,0,1.44,1.44,0,0,1,0-2h0a1.44,1.44,0,1,1,2,2Z"/><path class="cls-1" d="M42.57,72.26A4.44,4.44,0,1,0,47,76.7,4.45,4.45,0,0,0,42.57,72.26Zm0,5.89A1.44,1.44,0,1,1,44,76.7,1.45,1.45,0,0,1,42.57,78.15Z"/><path class="cls-1" d="M66.71,62.26a4.44,4.44,0,1,0,3.14,1.3A4.41,4.41,0,0,0,66.71,62.26Zm1,5.46a1.44,1.44,0,0,1-2.46-1,1.43,1.43,0,0,1,.42-1,1.48,1.48,0,0,1,2,0,1.44,1.44,0,0,1,0,2Z"/><path class="cls-1" d="M76.7,38.13a4.44,4.44,0,1,0,4.44,4.44A4.45,4.45,0,0,0,76.7,38.13Zm0,5.89a1.44,1.44,0,1,1,1.44-1.44A1.45,1.45,0,0,1,76.7,44Z"/><path class="cls-1" d="M66.71,22.88a4.44,4.44,0,1,0-3.14-1.3A4.43,4.43,0,0,0,66.71,22.88Zm-1-5.46a1.44,1.44,0,1,1,0,2A1.44,1.44,0,0,1,65.69,17.41Z"/><path class="cls-1" d="M24,40.17a1.5,1.5,0,0,0,1.06-.44L37.87,27a1.5,1.5,0,0,0-2.12-2.12L23,37.61A1.5,1.5,0,0,0,24,40.17Z"/><path class="cls-1" d="M42.13,31,29.35,43.77a1.5,1.5,0,1,0,2.12,2.12L44.25,33.11A1.5,1.5,0,1,0,42.13,31Z"/><path class="cls-1" d="M43.28,23.68l-21.5,21.5a1.5,1.5,0,1,0,2.12,2.12L45.4,25.8a1.5,1.5,0,1,0-2.12-2.12Z"/></g></g></svg>