<svg xmlns="http://www.w3.org/2000/svg" viewBox="0 0 91.75 91.75"><defs><style>.cls-1{fill:#929dad;}</style></defs><title>Asset 8</title><g id="Layer_2" data-name="Layer 2"><g id="Layer_1-2" data-name="Layer 1"><path class="cls-1" d="M45.87,0A45.87,45.87,0,1,0,91.75,45.87,45.93,45.93,0,0,0,45.87,0ZM88.71,44.37h-7A35.81,35.81,0,0,0,70.15,19.46a4.05,4.05,0,0,0,0-.48,4.11,4.11,0,0,0-5.71-3.79A35.66,35.66,0,0,0,47.37,10V3A42.91,42.91,0,0,1,88.71,44.37Zm-16,20.54a4.08,4.08,0,0,0-5.05,5.61,32.75,32.75,0,0,1-20.25,8.21V71.65A25.86,25.86,0,0,0,71.65,47.37h7.08A32.69,32.69,0,0,1,72.68,64.91ZM29.89,29.6a4.09,4.09,0,0,0,6.27-4.37,22.65,22.65,0,0,1,8.21-2.12v7.64A15.23,15.23,0,0,0,30.75,44.37H23.11A22.76,22.76,0,0,1,29.89,29.6ZM52.41,47.37H58A12.21,12.21,0,0,1,47.37,58V52.41a1.5,1.5,0,1,0-3,0V58a12.21,12.21,0,0,1-10.6-10.6h5.56a1.5,1.5,0,0,0,0-3H33.77a12.21,12.21,0,0,1,10.6-10.6v5.56a1.5,1.5,0,1,0,3,0V33.77A12.21,12.21,0,0,1,58,44.37H52.41a1.5,1.5,0,0,0,0,3Zm-21.67,0A15.23,15.23,0,0,0,44.37,61v7.64A22.85,22.85,0,0,1,23.11,47.37ZM47.37,61A15.23,15.23,0,0,0,61,47.37h7.64A22.85,22.85,0,0,1,47.37,68.64ZM61,44.37A15.23,15.23,0,0,0,47.37,30.75V23.11A22.85,22.85,0,0,1,68.64,44.37ZM44.37,20.1a25.63,25.63,0,0,0-10,2.64,4.09,4.09,0,0,0-6.24,4.36A25.75,25.75,0,0,0,20.1,44.37H15.3a4.11,4.11,0,0,0-2.1-2.22A32.94,32.94,0,0,1,44.37,13ZM15.3,47.37h4.8A25.86,25.86,0,0,0,44.37,71.65v7.08A32.94,32.94,0,0,1,13.19,49.6,4.11,4.11,0,0,0,15.3,47.37Zm56.35-3A25.86,25.86,0,0,0,47.37,20.1V13A32.66,32.66,0,0,1,62.3,17.39a4.1,4.1,0,0,0,6.35,4.78A32.8,32.8,0,0,1,78.73,44.37ZM44.37,3v7A36,36,0,0,0,10.19,42a4.1,4.1,0,0,0-2.53,2.39H3A42.91,42.91,0,0,1,44.37,3ZM3,47.37H7.66a4.1,4.1,0,0,0,2.53,2.39,36,36,0,0,0,34.18,32v7A42.91,42.91,0,0,1,3,47.37ZM47.37,88.71v-7a35.75,35.75,0,0,0,22.44-9.14A4.08,4.08,0,0,0,75,66.88a35.68,35.68,0,0,0,6.78-19.51h7A42.91,42.91,0,0,1,47.37,88.71Z"/></g></g></svg>