<svg xmlns="http://www.w3.org/2000/svg" viewBox="0 0 100.94 100.94"><defs><style>.cls-1{fill:#05a2aa;}</style></defs><title>Asset 2</title><g id="Layer_2" data-name="Layer 2"><g id="Layer_1-2" data-name="Layer 1"><path class="cls-1" d="M99.83,8.12l-7-7a3.8,3.8,0,0,0-6.5,2.69,3.77,3.77,0,0,0,.44,1.75l-16.1,16.1-1.41-1.41a1.5,1.5,0,0,0-2.12,0L38.37,49l-.88-.88a1.5,1.5,0,0,0-2.12,0l-30,30a3.9,3.9,0,0,0-4.27.74,3.81,3.81,0,0,0,0,5.38L16.72,99.83a3.8,3.8,0,0,0,6.13-4.29l30-30a1.5,1.5,0,0,0,0-2.12l-.88-.88L80.7,33.81a1.5,1.5,0,0,0,0-2.12l-1.41-1.41,16.1-16.1a3.8,3.8,0,0,0,4.44-6.05ZM20,97.71a.83.83,0,0,1-1.14,0L3.23,82.1a.8.8,0,0,1,0-1.14.82.82,0,0,1,1.14,0l.14.14h0l7.67,7.67L20,96.57a.8.8,0,0,1,0,1.14Zm.92-4.46L7.69,80,36.43,51.3,49.64,64.51Zm28.91-32.8-9.33-9.33,27.7-27.7,1.41,1.41h0l6.5,6.5,1.41,1.41ZM77.16,28.15l-4.38-4.38,16-16,4.38,4.38ZM97.71,11.38a.82.82,0,0,1-1.14,0l-7-7A.81.81,0,1,1,90.7,3.23l7,7a.81.81,0,0,1,0,1.14Z"/></g></g></svg>