<?xml version="1.0" standalone="no"?>
<!DOCTYPE svg PUBLIC "-//W3C//DTD SVG 20010904//EN"
 "http://www.w3.org/TR/2001/REC-SVG-20010904/DTD/svg10.dtd">
<svg version="1.0" xmlns="http://www.w3.org/2000/svg"
 width="810.000000pt" height="810.000000pt" viewBox="0 0 810.000000 810.000000"
 preserveAspectRatio="xMidYMid meet">
<metadata>
Created by potrace 1.11, written by Peter Selinger 2001-2013
</metadata>
<g transform="translate(0.000000,810.000000) scale(0.100000,-0.100000)"
fill="#000000" stroke="none">
<path d="M1340 7929 c-76 -34 -71 22 -74 -832 -3 -717 -2 -766 14 -803 24 -52
57 -81 116 -102 44 -17 88 -18 429 -17 362 1 382 2 426 21 25 12 59 39 77 61
53 67 61 109 67 333 3 111 8 206 11 212 10 16 48 26 62 16 6 -6 12 -6 12 -1 0
5 9 9 20 9 11 0 20 -3 20 -6 0 -8 48 -5 57 3 3 4 12 2 19 -4 8 -7 14 -7 19 1
5 8 10 8 20 0 10 -8 15 -8 20 0 5 8 10 8 20 0 10 -8 15 -8 20 0 5 8 10 8 20 0
10 -8 15 -8 20 0 5 8 10 8 20 0 10 -8 15 -8 20 0 5 8 10 8 20 0 10 -8 15 -8
20 0 5 8 10 8 20 0 10 -8 15 -8 20 0 5 8 10 8 20 0 10 -8 15 -8 20 0 5 8 10 8
20 0 10 -8 15 -8 20 0 5 8 10 8 20 0 10 -8 15 -8 20 0 5 8 10 8 20 0 10 -8 15
-8 20 0 5 8 10 8 20 0 10 -8 15 -8 20 0 5 8 10 8 20 0 10 -8 15 -8 20 0 5 8
10 8 20 0 10 -8 15 -8 20 0 5 8 10 8 20 0 9 -8 15 -8 20 0 4 7 12 7 26 0 13
-8 19 -7 19 0 0 8 6 8 20 0 11 -6 20 -7 20 -3 0 10 291 10 306 1 6 -4 14 -4
18 0 12 11 506 9 506 -3 0 -7 3 -7 8 0 10 14 252 14 252 0 0 -7 3 -7 8 0 4 6
53 11 117 11 64 0 113 -5 117 -11 5 -6 8 -7 8 0 0 14 230 14 230 0 0 -7 3 -6
8 0 4 6 53 11 117 11 64 0 113 -5 117 -11 5 -6 8 -7 8 0 0 14 230 14 230 0 0
-7 3 -6 8 0 4 6 53 11 117 11 64 0 113 -5 117 -11 5 -6 8 -6 8 0 0 7 180 10
528 10 565 0 590 2 662 51 31 20 72 73 70 89 0 3 6 18 14 33 22 42 23 715 1
779 -28 81 -53 111 -125 146 l-45 22 -2643 1 c-2488 0 -2645 -1 -2682 -17z"/>
<path d="M6640 6359 c-16 -10 -292 -143 -300 -144 -7 -2 -275 -131 -343 -165
-31 -17 -59 -30 -62 -29 -10 1 -100 -46 -107 -56 -4 -5 -8 -7 -8 -3 0 3 -35
-10 -77 -31 -201 -98 -239 -115 -245 -113 -5 1 -8 -3 -8 -8 0 -6 -4 -10 -10
-10 -9 0 -60 -24 -355 -164 -71 -35 -148 -71 -170 -81 -22 -10 -42 -19 -44
-21 -3 -3 37 -64 49 -74 4 -3 10 -12 13 -20 4 -8 21 -33 37 -55 17 -22 38 -51
48 -65 55 -79 254 -358 267 -375 9 -11 24 -32 33 -47 9 -16 20 -28 24 -28 4 0
8 -6 8 -13 0 -7 8 -22 18 -33 10 -10 38 -48 63 -84 71 -103 113 -161 130 -181
16 -18 17 -17 40 26 13 25 27 45 31 45 5 0 8 4 8 10 0 5 29 54 65 109 36 55
65 105 65 111 0 5 3 10 8 10 4 0 18 20 32 45 14 25 28 45 33 45 4 0 6 4 3 9
-3 4 3 16 13 25 11 10 25 31 31 47 7 16 16 29 20 29 4 0 11 11 14 25 4 14 11
25 16 25 6 0 10 5 10 10 0 12 52 94 63 98 4 2 7 8 7 14 0 6 11 26 26 45 14 18
21 33 17 33 -4 0 -3 4 2 8 6 4 26 32 45 62 19 30 38 57 42 58 5 2 8 7 8 12 0
4 27 50 59 101 145 228 218 344 240 382 13 23 27 44 30 47 4 3 36 52 71 110
35 58 67 107 70 110 3 3 19 27 34 54 l28 48 -33 29 c-37 32 -38 32 -59 18z"/>
<path d="M4018 5195 c-1 -2 -23 -6 -48 -8 -90 -11 -125 -18 -220 -50 -90 -30
-194 -79 -222 -104 -11 -10 -23 -18 -27 -17 -10 2 -81 -48 -81 -57 0 -5 -3 -8
-7 -7 -13 4 -134 -108 -188 -173 -134 -162 -235 -390 -261 -588 -15 -112 -6
-324 18 -416 5 -22 11 -47 13 -55 7 -35 40 -121 75 -196 84 -181 221 -340 397
-460 144 -99 315 -164 498 -192 91 -13 309 -4 403 17 86 19 289 92 302 109 3
4 25 18 50 31 96 51 203 144 325 284 39 45 165 266 165 291 0 2 5 17 12 33 6
15 12 33 14 40 1 6 7 28 14 47 6 20 9 40 5 46 -3 5 -2 10 4 10 5 0 9 8 9 18 0
9 4 35 9 57 26 107 4 399 -39 524 -7 20 -13 38 -13 41 -14 52 -119 254 -150
286 -5 6 -21 26 -35 45 -26 36 -135 147 -186 189 -72 60 -234 159 -234 143 0
-4 -4 -3 -8 3 -6 10 -125 58 -172 70 -107 26 -176 36 -287 39 -72 2 -133 2
-135 0z m217 -499 c56 -9 115 -26 130 -38 5 -4 15 -8 22 -8 27 0 151 -85 209
-144 117 -117 191 -274 198 -420 1 -29 6 -57 10 -64 4 -7 3 -12 -2 -12 -5 0
-8 -10 -7 -22 4 -51 -49 -248 -66 -248 -5 0 -8 -3 -7 -7 3 -13 -24 -63 -34
-63 -4 0 -8 -6 -8 -13 0 -8 -18 -33 -40 -57 -22 -24 -40 -47 -40 -52 0 -4 -4
-8 -10 -8 -5 0 -19 -10 -32 -23 -31 -31 -132 -92 -188 -113 -25 -10 -47 -20
-50 -23 -3 -3 -14 -6 -25 -7 -11 -1 -36 -4 -55 -8 -43 -9 -190 -14 -190 -6 0
3 -18 6 -41 7 -62 4 -236 71 -247 96 -2 4 -8 7 -13 7 -22 0 -179 156 -179 177
0 7 -4 13 -8 13 -11 0 -77 132 -88 175 -3 15 -14 66 -21 100 -7 36 -7 122 -1
185 6 54 47 190 57 190 4 0 8 6 8 13 0 11 41 83 67 115 24 30 123 128 142 139
79 51 113 68 175 90 38 13 86 26 106 29 20 2 38 6 40 8 6 5 133 0 188 -8z"/>
<path d="M4135 4312 c-37 -8 -108 -64 -207 -166 -55 -56 -103 -108 -108 -117
-9 -16 -2 -27 75 -127 32 -42 153 -159 165 -160 76 -9 88 -7 135 16 69 34 199
114 203 124 2 4 9 8 15 8 7 0 26 12 42 26 17 14 42 33 57 42 39 23 42 41 11
69 -16 14 -53 49 -83 77 -95 89 -241 204 -263 208 -12 2 -31 2 -42 0z"/>
<path d="M2469 3363 c-8 -16 -16 -30 -19 -33 -3 -3 -10 -14 -17 -25 -42 -72
-229 -367 -243 -382 -5 -7 -10 -14 -10 -17 0 -4 -48 -83 -90 -146 -6 -8 -59
-94 -120 -190 -60 -96 -114 -182 -120 -190 -10 -14 -228 -362 -260 -415 -8
-14 -45 -72 -82 -130 -38 -57 -68 -109 -68 -114 0 -19 59 -53 81 -46 11 4 116
53 232 110 247 120 451 218 632 305 72 34 137 66 145 71 14 8 80 40 90 44 3 1
37 16 75 35 39 18 72 32 74 31 2 -2 7 1 10 6 9 12 71 43 87 43 8 0 14 4 14 9
0 5 14 12 30 16 17 4 30 11 30 16 0 5 4 9 10 9 5 0 38 13 72 30 35 16 66 28
69 27 4 -1 15 5 25 14 11 9 30 20 44 24 14 4 33 14 43 23 9 8 17 12 17 8 0 -4
18 3 40 15 22 13 40 27 40 33 0 6 -14 24 -30 40 -17 16 -30 33 -30 38 0 4 -7
8 -15 8 -8 0 -15 3 -15 8 0 7 -53 63 -349 372 -104 107 -228 237 -276 288 -49
50 -91 92 -95 92 -4 0 -13 -12 -21 -27z"/>
<path d="M5806 2221 c-3 -5 -15 -7 -26 -4 -11 3 -20 0 -20 -6 0 -6 -4 -10 -9
-8 -20 5 -100 -86 -98 -113 0 -3 -5 -16 -12 -29 -14 -25 -18 -87 -26 -346 -2
-82 -5 -150 -5 -150 -1 0 -3 -57 -4 -128 -2 -84 -7 -132 -15 -140 -8 -8 -53
-12 -139 -13 -70 0 -133 -3 -140 -8 -7 -4 -12 -4 -12 1 0 12 -74 10 -82 -2 -5
-6 -8 -5 -8 4 0 10 -3 11 -13 2 -8 -6 -16 -8 -20 -5 -10 10 -117 9 -117 -1 0
-5 -4 -4 -9 4 -6 9 -11 10 -15 2 -4 -6 -12 -8 -18 -5 -14 9 -92 9 -106 0 -7
-4 -12 -3 -12 2 0 4 -17 7 -37 5 -88 -8 -273 -8 -273 0 0 4 -6 5 -12 0 -18
-11 -148 -11 -148 0 0 6 -5 6 -12 1 -8 -5 -358 -9 -805 -9 -436 0 -793 -2
-793 -5 0 -3 -276 -5 -613 -6 -336 -1 -625 -4 -642 -7 -77 -14 -134 -58 -166
-129 -23 -52 -23 -57 -22 -413 0 -339 1 -363 20 -405 28 -63 62 -96 119 -115
53 -18 172 -26 180 -13 3 5 11 5 17 1 7 -4 127 -8 267 -9 140 -1 671 -5 1180
-8 509 -3 1326 -8 1815 -12 490 -3 1068 -7 1285 -8 300 -2 402 0 425 10 45 19
120 88 141 131 21 44 28 218 10 242 -8 11 -8 13 0 8 14 -8 14 95 -1 105 -7 5
-6 8 1 8 8 0 12 192 13 694 l1 695 -22 38 c-45 76 -107 127 -165 137 -15 2
-28 5 -28 6 0 1 -12 3 -27 4 -16 1 -28 -2 -28 -7 0 -4 -6 -5 -12 -1 -19 12
-755 17 -762 5z"/>
</g>
</svg>
