<svg version="1" xmlns="http://www.w3.org/2000/svg" width="1080" height="1080" viewBox="0 0 810.000000 810.000000"><path d="M134 17.1c-7.6 3.4-7.1-2.2-7.4 83.2-.3 71.7-.2 76.6 1.4 80.3 2.4 5.2 5.7 8.1 11.6 10.2 4.4 1.7 8.8 1.8 42.9 1.7 36.2-.1 38.2-.2 42.6-2.1 2.5-1.2 5.9-3.9 7.7-6.1 5.3-6.7 6.1-10.9 6.7-33.3.3-11.1.8-20.6 1.1-21.2 1-1.6 4.8-2.6 6.2-1.6.6.6 1.2.6 1.2.1s.9-.9 2-.9 2 .3 2 .6c0 .8 4.8.5 5.7-.3.3-.4 1.2-.2 1.9.4.8.7 1.4.7 1.9-.1.5-.8 1-.8 2 0s1.5.8 2 0 1-.8 2 0 1.5.8 2 0 1-.8 2 0 1.5.8 2 0 1-.8 2 0 1.5.8 2 0 1-.8 2 0 1.5.8 2 0 1-.8 2 0 1.5.8 2 0 1-.8 2 0 1.5.8 2 0 1-.8 2 0 1.5.8 2 0 1-.8 2 0 1.5.8 2 0 1-.8 2 0 1.5.8 2 0 1-.8 2 0 1.5.8 2 0 1-.8 2 0 1.5.8 2 0 1-.8 2 0 1.5.8 2 0 1-.8 2 0c.9.8 1.5.8 2 0 .4-.7 1.2-.7 2.6 0 1.3.8 1.9.7 1.9 0 0-.8.6-.8 2 0 1.1.6 2 .7 2 .3 0-1 29.1-1 30.6-.1.6.4 1.4.4 1.8 0 1.2-1.1 50.6-.9 50.6.3 0 .7.3.7.8 0 1-1.4 25.2-1.4 25.2 0 0 .7.3.7.8 0 .4-.6 5.3-1.1 11.7-1.1 6.4 0 11.3.5 11.7 1.1.5.6.8.7.8 0 0-1.4 23-1.4 23 0 0 .7.3.6.8 0 .4-.6 5.3-1.1 11.7-1.1 6.4 0 11.3.5 11.7 1.1.5.6.8.7.8 0 0-1.4 23-1.4 23 0 0 .7.3.6.8 0 .4-.6 5.3-1.1 11.7-1.1 6.4 0 11.3.5 11.7 1.1.5.6.8.6.8 0 0-.7 18-1 52.8-1 56.5 0 59-.2 66.2-5.1 3.1-2 7.2-7.3 7-8.9 0-.3.6-1.8 1.4-3.3 2.2-4.2 2.3-71.5.1-77.9-2.8-8.1-5.3-11.1-12.5-14.6l-4.5-2.2-264.3-.1c-248.8 0-264.5.1-268.2 1.7zM664 174.1c-1.6 1-29.2 14.3-30 14.4-.7.2-27.5 13.1-34.3 16.5-3.1 1.7-5.9 3-6.2 2.9-1-.1-10 4.6-10.7 5.6-.4.5-.8.7-.8.3 0-.3-3.5 1-7.7 3.1-20.1 9.8-23.9 11.5-24.5 11.3-.5-.1-.8.3-.8.8 0 .6-.4 1-1 1-.9 0-6 2.4-35.5 16.4-7.1 3.5-14.8 7.1-17 8.1-2.2 1-4.2 1.9-4.4 2.1-.3.3 3.7 6.4 4.9 7.4.4.3 1 1.2 1.3 2 .4.8 2.1 3.3 3.7 5.5 1.7 2.2 3.8 5.1 4.8 6.5 5.5 7.9 25.4 35.8 26.7 37.5.9 1.1 2.4 3.2 3.3 4.7.9 1.6 2 2.8 2.4 2.8.4 0 .8.6.8 1.3 0 .7.8 2.2 1.8 3.3 1 1 3.8 4.8 6.3 8.4 7.1 10.3 11.3 16.1 13 18.1 1.6 1.8 1.7 1.7 4-2.6 1.3-2.5 2.7-4.5 3.1-4.5.5 0 .8-.4.8-1 0-.5 2.9-5.4 6.5-10.9s6.5-10.5 6.5-11.1c0-.5.3-1 .8-1 .4 0 1.8-2 3.2-4.5 1.4-2.5 2.8-4.5 3.3-4.5.4 0 .6-.4.3-.9-.3-.4.3-1.6 1.3-2.5 1.1-1 2.5-3.1 3.1-4.7.7-1.6 1.6-2.9 2-2.9.4 0 1.1-1.1 1.4-2.5.4-1.4 1.1-2.5 1.6-2.5.6 0 1-.5 1-1 0-1.2 5.2-9.4 6.3-9.8.4-.2.7-.8.7-1.4 0-.6 1.1-2.6 2.6-4.5 1.4-1.8 2.1-3.3 1.7-3.3-.4 0-.3-.4.2-.8.6-.4 2.6-3.2 4.5-6.2s3.8-5.7 4.2-5.8c.5-.2.8-.7.8-1.2 0-.4 2.7-5 5.9-10.1 14.5-22.8 21.8-34.4 24-38.2 1.3-2.3 2.7-4.4 3-4.7.4-.3 3.6-5.2 7.1-11 3.5-5.8 6.7-10.7 7-11 .3-.3 1.9-2.7 3.4-5.4l2.8-4.8-3.3-2.9c-3.7-3.2-3.8-3.2-5.9-1.8zM401.8 290.5c-.1.2-2.3.6-4.8.8-9 1.1-12.5 1.8-22 5-9 3-19.4 7.9-22.2 10.4-1.1 1-2.3 1.8-2.7 1.7-1-.2-8.1 4.8-8.1 5.7 0 .5-.3.8-.7.7-1.3-.4-13.4 10.8-18.8 17.3-13.4 16.2-23.5 39-26.1 58.8-1.5 11.2-.6 32.4 1.8 41.6.5 2.2 1.1 4.7 1.3 5.5.7 3.5 4 12.1 7.5 19.6 8.4 18.1 22.1 34 39.7 46 14.4 9.9 31.5 16.4 49.8 19.2 9.1 1.3 30.9.4 40.3-1.7 8.6-1.9 28.9-9.2 30.2-10.9.3-.4 2.5-1.8 5-3.1 9.6-5.1 20.3-14.4 32.5-28.4 3.9-4.5 16.5-26.6 16.5-29.1 0-.2.5-1.7 1.2-3.3.6-1.5 1.2-3.3 1.4-4 .1-.6.7-2.8 1.4-4.7.6-2 .9-4 .5-4.6-.3-.5-.2-1 .4-1 .5 0 .9-.8.9-1.8 0-.9.4-3.5.9-5.7 2.6-10.7.4-39.9-3.9-52.4-.7-2-1.3-3.8-1.3-4.1-1.4-5.2-11.9-25.4-15-28.6-.5-.6-2.1-2.6-3.5-4.5-2.6-3.6-13.5-14.7-18.6-18.9-7.2-6-23.4-15.9-23.4-14.3 0 .4-.4.3-.8-.3-.6-1-12.5-5.8-17.2-7-10.7-2.6-17.6-3.6-28.7-3.9-7.2-.2-13.3-.2-13.5 0zm21.7 49.9c5.6.9 11.5 2.6 13 3.8.5.4 1.5.8 2.2.8 2.7 0 15.1 8.5 20.9 14.4 11.7 11.7 19.1 27.4 19.8 42 .1 2.9.6 5.7 1 6.4.4.7.3 1.2-.2 1.2s-.8 1-.7 2.2c.4 5.1-4.9 24.8-6.6 24.8-.5 0-.8.3-.7.7.3 1.3-2.4 6.3-3.4 6.3-.4 0-.8.6-.8 1.3 0 .8-1.8 3.3-4 5.7-2.2 2.4-4 4.7-4 5.2 0 .4-.4.8-1 .8-.5 0-1.9 1-3.2 2.3-3.1 3.1-13.2 9.2-18.8 11.3-2.5 1-4.7 2-5 2.3-.3.3-1.4.6-2.5.7-1.1.1-3.6.4-5.5.8-4.3.9-19 1.4-19 .6 0-.3-1.8-.6-4.1-.7-6.2-.4-23.6-7.1-24.7-9.6-.2-.4-.8-.7-1.3-.7-2.2 0-17.9-15.6-17.9-17.7 0-.7-.4-1.3-.8-1.3-1.1 0-7.7-13.2-8.8-17.5-.3-1.5-1.4-6.6-2.1-10-.7-3.6-.7-12.2-.1-18.5.6-5.4 4.7-19 5.7-19 .4 0 .8-.6.8-1.3 0-1.1 4.1-8.3 6.7-11.5 2.4-3 12.3-12.8 14.2-13.9 7.9-5.1 11.3-6.8 17.5-9 3.8-1.3 8.6-2.6 10.6-2.9 2-.2 3.8-.6 4-.8.6-.5 13.3 0 18.8.8z"/><path d="M413.5 378.8c-3.7.8-10.8 6.4-20.7 16.6-5.5 5.6-10.3 10.8-10.8 11.7-.9 1.6-.2 2.7 7.5 12.7 3.2 4.2 15.3 15.9 16.5 16 7.6.9 8.8.7 13.5-1.6 6.9-3.4 19.9-11.4 20.3-12.4.2-.4.9-.8 1.5-.8.7 0 2.6-1.2 4.2-2.6 1.7-1.4 4.2-3.3 5.7-4.2 3.9-2.3 4.2-4.1 1.1-6.9-1.6-1.4-5.3-4.9-8.3-7.7-9.5-8.9-24.1-20.4-26.3-20.8-1.2-.2-3.1-.2-4.2 0zM246.9 473.7c-.8 1.6-1.6 3-1.9 3.3-.3.3-1 1.4-1.7 2.5-4.2 7.2-22.9 36.7-24.3 38.2-.5.7-1 1.4-1 1.7 0 .4-4.8 8.3-9 14.6-.6.8-5.9 9.4-12 19-6 9.6-11.4 18.2-12 19-1 1.4-22.8 36.2-26 41.5-.8 1.4-4.5 7.2-8.2 13-3.8 5.7-6.8 10.9-6.8 11.4 0 1.9 5.9 5.3 8.1 4.6 1.1-.4 11.6-5.3 23.2-11 24.7-12 45.1-21.8 63.2-30.5 7.2-3.4 13.7-6.6 14.5-7.1 1.4-.8 8-4 9-4.4.3-.1 3.7-1.6 7.5-3.5 3.9-1.8 7.2-3.2 7.4-3.1.2.2.7-.1 1-.6.9-1.2 7.1-4.3 8.7-4.3.8 0 1.4-.4 1.4-.9s1.4-1.2 3-1.6c1.7-.4 3-1.1 3-1.6s.4-.9 1-.9c.5 0 3.8-1.3 7.2-3 3.5-1.6 6.6-2.8 6.9-2.7.4.1 1.5-.5 2.5-1.4 1.1-.9 3-2 4.4-2.4 1.4-.4 3.3-1.4 4.3-2.3.9-.8 1.7-1.2 1.7-.8 0 .4 1.8-.3 4-1.5 2.2-1.3 4-2.7 4-3.3 0-.6-1.4-2.4-3-4-1.7-1.6-3-3.3-3-3.8 0-.4-.7-.8-1.5-.8s-1.5-.3-1.5-.8c0-.7-5.3-6.3-34.9-37.2-10.4-10.7-22.8-23.7-27.6-28.8-4.9-5-9.1-9.2-9.5-9.2-.4 0-1.3 1.2-2.1 2.7zM580.6 587.9c-.3.5-1.5.7-2.6.4-1.1-.3-2 0-2 .6s-.4 1-.9.8c-2-.5-10 8.6-9.8 11.3 0 .3-.5 1.6-1.2 2.9-1.4 2.5-1.8 8.7-2.6 34.6-.2 8.2-.5 15-.5 15-.1 0-.3 5.7-.4 12.8-.2 8.4-.7 13.2-1.5 14-.8.8-5.3 1.2-13.9 1.3-7 0-13.3.3-14 .8-.7.4-1.2.4-1.2-.1 0-1.2-7.4-1-8.2.2-.5.6-.8.5-.8-.4 0-1-.3-1.1-1.3-.2-.8.6-1.6.8-2 .5-1-1-11.7-.9-11.7.1 0 .5-.4.4-.9-.4-.6-.9-1.1-1-1.5-.2-.4.6-1.2.8-1.8.5-1.4-.9-9.2-.9-10.6 0-.7.4-1.2.3-1.2-.2 0-.4-1.7-.7-3.7-.5-8.8.8-27.3.8-27.3 0 0-.4-.6-.5-1.2 0-1.8 1.1-14.8 1.1-14.8 0 0-.6-.5-.6-1.2-.1-.8.5-35.8.9-80.5.9-43.6 0-79.3.2-79.3.5s-27.6.5-61.3.6c-33.6.1-62.5.4-64.2.7-7.7 1.4-13.4 5.8-16.6 12.9-2.3 5.2-2.3 5.7-2.2 41.3 0 33.9.1 36.3 2 40.5 2.8 6.3 6.2 9.6 11.9 11.5 5.3 1.8 17.2 2.6 18 1.3.3-.5 1.1-.5 1.7-.1.7.4 12.7.8 26.7.9 14 .1 67.1.5 118 .8 50.9.3 132.6.8 181.5 1.2 49 .3 106.8.7 128.5.8 30 .2 40.2 0 42.5-1 4.5-1.9 12-8.8 14.1-13.1 2.1-4.4 2.8-21.8 1-24.2-.8-1.1-.8-1.3 0-.8 1.4.8 1.4-9.5-.1-10.5-.7-.5-.6-.8.1-.8.8 0 1.2-19.2 1.3-69.4l.1-69.5-2.2-3.8c-4.5-7.6-10.7-12.7-16.5-13.7-1.5-.2-2.8-.5-2.8-.6 0-.1-1.2-.3-2.7-.4-1.6-.1-2.8.2-2.8.7 0 .4-.6.5-1.2.1-1.9-1.2-75.5-1.7-76.2-.5z"/></svg>