<?xml version="1.0" encoding="iso-8859-1"?>
<!-- Generator: Adobe Illustrator 18.1.1, SVG Export Plug-In . SVG Version: 6.00 Build 0)  -->
<svg xmlns="http://www.w3.org/2000/svg" xmlns:xlink="http://www.w3.org/1999/xlink" version="1.1" id="Capa_1" x="0px" y="0px" viewBox="0 0 334.145 334.145" style="enable-background:new 0 0 334.145 334.145;" xml:space="preserve" width="512px" height="512px">
<g>
	<g>
		<path d="M334.127,102.797c0-0.125,0.018-0.245,0.018-0.364c0-0.292-0.125-0.543-0.167-0.829    c-0.06-0.424-0.101-0.841-0.251-1.247c-0.155-0.412-0.4-0.752-0.633-1.11c-0.155-0.239-0.227-0.513-0.418-0.734L280.443,38.54    V8.95c0-3.294-2.667-5.967-5.967-5.967H67.629c-3.3,0-5.967,2.673-5.967,5.967v29.351L1.754,98.203    c-0.555,0.549-0.991,1.211-1.295,1.945C0.155,100.882,0,101.658,0,102.433c0,16.051,11.6,29.429,26.851,32.245v190.516    c0,3.3,2.667,5.967,5.967,5.967h34.811h72.593h161.105c3.3,0,5.967-2.667,5.967-5.967V134.678    c15.108-2.792,26.612-15.949,26.827-31.803C334.127,102.851,334.127,102.827,334.127,102.797z M73.595,14.917h194.914v19.888    H73.595V14.917z M73.595,319.228V192.933h60.659v126.295H73.595z M146.188,319.228V186.966c0-3.3-2.667-5.967-5.967-5.967H67.629    c-3.3,0-5.967,2.667-5.967,5.967v132.262H38.785V134.678c8.604-1.587,16.033-6.54,20.884-13.437    c5.943,8.455,15.753,14.01,26.851,14.01s20.908-5.555,26.851-14.01c5.943,8.455,15.753,14.01,26.851,14.01    c11.098,0,20.908-5.555,26.851-14.01c5.943,8.455,15.753,14.01,26.851,14.01s20.908-5.555,26.851-14.01    c5.943,8.455,15.753,14.01,26.851,14.01s20.908-5.555,26.851-14.01c4.851,6.904,12.28,11.85,20.884,13.437v184.549H146.188z     M301.327,123.317c-11.516,0-20.884-9.368-20.884-20.884c0-3.3-2.667-5.967-5.967-5.967s-5.967,2.667-5.967,5.967    c0,11.516-9.368,20.884-20.884,20.884c-11.516,0-20.884-9.368-20.884-20.884c0-3.3-2.667-5.967-5.967-5.967    c-3.3,0-5.967,2.667-5.967,5.967c0,11.516-9.368,20.884-20.884,20.884s-20.884-9.368-20.884-20.884c0-3.3-2.667-5.967-5.967-5.967    c-3.3,0-5.967,2.667-5.967,5.967c0,11.516-9.368,20.884-20.884,20.884c-11.516,0-20.884-9.368-20.884-20.884    c0-3.3-2.667-5.967-5.967-5.967c-3.3,0-5.967,2.667-5.967,5.967c0,11.516-9.368,20.884-20.884,20.884s-20.884-9.368-20.884-20.884    c0-3.3-2.667-5.967-5.967-5.967s-5.967,2.667-5.967,5.967c0,11.516-9.368,20.884-20.884,20.884    c-10.746,0-19.518-8.193-20.657-18.641l57.938-57.932h201.662l50.247,57.694C320.982,114.999,312.157,123.317,301.327,123.317z" fill="#ffffff"/>
		<path d="M281.439,254.588h-8.95v-67.623c0-3.3-2.667-5.967-5.967-5.967h-87.516    c-3.3,0-5.967,2.667-5.967,5.967v67.623h-8.95c-3.3,0-5.967,2.667-5.967,5.967v15.914c0,3.3,2.667,5.967,5.967,5.967h117.35    c3.3,0,5.967-2.667,5.967-5.967v-15.914C287.406,257.256,284.739,254.588,281.439,254.588z M260.555,254.588h-31.821v-61.656    h31.821V254.588z M184.973,192.933H216.8v61.656h-31.827V192.933z M275.472,270.502H170.056v-3.98h8.95h87.516h8.95V270.502z" fill="#ffffff"/>
	</g>
</g>
<g>
</g>
<g>
</g>
<g>
</g>
<g>
</g>
<g>
</g>
<g>
</g>
<g>
</g>
<g>
</g>
<g>
</g>
<g>
</g>
<g>
</g>
<g>
</g>
<g>
</g>
<g>
</g>
<g>
</g>
</svg>
