<svg viewBox="-46 0 512 512" xmlns="http://www.w3.org/2000/svg"><path d="m90 151c2.683594 0 5.285156-.359375 7.761719-1.023438l28.175781 28.175782c-13.144531 17.535156-20.9375 39.296875-20.9375 62.847656s7.792969 45.3125 20.9375 62.847656l-46.542969 46.546875 21.210938 21.210938 46.546875-46.542969c17.535156 13.144531 39.296875 20.9375 62.847656 20.9375s45.3125-7.792969 62.847656-20.9375l46.546875 46.542969 21.210938-21.210938-46.542969-46.546875c13.144531-17.535156 20.9375-39.296875 20.9375-62.847656s-7.792969-45.3125-20.9375-62.847656l28.175781-28.175782c2.476563.664063 5.078125 1.023438 7.761719 1.023438 16.542969 0 30-13.457031 30-30s-13.457031-30-30-30-30 13.457031-30 30c0 2.683594.359375 5.285156 1.023438 7.761719l-28.175782 28.175781c-17.535156-13.144531-39.296875-20.9375-62.847656-20.9375s-45.3125 7.792969-62.847656 20.9375l-28.175782-28.175781c.664063-2.476563 1.023438-5.078125 1.023438-7.761719 0-16.542969-13.457031-30-30-30s-30 13.457031-30 30 13.457031 30 30 30zm45 90c0-3.601562.269531-7.136719.761719-10.601562l84.839843 84.839843c-3.464843.492188-7 .761719-10.601562.761719-41.355469 0-75-33.644531-75-75zm150 0c0 3.601562-.269531 7.136719-.761719 10.601562l-84.839843-84.839843c3.464843-.492188 7-.761719 10.601562-.761719 41.355469 0 75 33.644531 75 75zm-116.332031-62.539062 103.871093 103.871093c-5.574218 8.410157-12.796874 15.632813-21.207031 21.207031l-103.871093-103.871093c5.574218-8.410157 12.796874-15.632813 21.207031-21.207031zm0 0"/><path d="m405 452h15v-452h-375c-24.8125 0-45 20.1875-45 45v422c0 24.8125 20.1875 45 45 45h375v-30h-15c-8.269531 0-15-6.730469-15-15s6.730469-15 15-15zm-375-407c0-8.269531 6.730469-15 15-15h345v392h-345c-5.257812 0-10.308594.90625-15 2.570312zm15 437c-8.269531 0-15-6.730469-15-15s6.730469-15.011719 15-15.011719l317.578125.011719c-1.660156 4.6875-2.578125 9.730469-2.578125 15 0 5.257812.914062 10.304688 2.578125 15zm0 0"/></svg>