<svg height="512pt" viewBox="0 0 512 512.001" width="512pt" xmlns="http://www.w3.org/2000/svg"><path d="m310.84375 164.371094h-109.6875c-4.144531 0-7.5 3.359375-7.5 7.5 0 4.144531 3.355469 7.5 7.5 7.5h109.6875c4.144531 0 7.5-3.355469 7.5-7.5 0-4.140625-3.355469-7.5-7.5-7.5zm0 0"/><path d="m332.625 201.15625v109.6875c0 4.140625 3.359375 7.5 7.503906 7.5 4.140625 0 7.5-3.359375 7.5-7.5v-109.6875c0-4.140625-3.359375-7.5-7.5-7.5-4.144531 0-7.503906 3.359375-7.503906 7.5zm0 0"/><path d="m193.65625 340.125c0 4.144531 3.355469 7.503906 7.5 7.503906h109.6875c4.144531 0 7.5-3.359375 7.5-7.503906 0-4.140625-3.355469-7.5-7.5-7.5h-109.6875c-4.144531 0-7.5 3.359375-7.5 7.5zm0 0"/><path d="m164.371094 201.15625v109.6875c0 4.140625 3.359375 7.5 7.5 7.5 4.144531 0 7.5-3.359375 7.5-7.5v-109.6875c0-4.140625-3.355469-7.5-7.5-7.5-4.140625 0-7.5 3.359375-7.5 7.5zm0 0"/><path d="m504.5 144.867188c4.144531 0 7.5-3.355469 7.5-7.5 0-4.140626-3.355469-7.5-7.5-7.5h-84.824219v-6.574219c0-17.074219-13.894531-30.96875-30.96875-30.96875h-6.574219v-84.824219c0-4.140625-3.355468-7.5-7.5-7.5-4.144531 0-7.5 3.359375-7.5 7.5v84.824219h-32.453124v-84.824219c0-4.140625-3.355469-7.5-7.5-7.5-4.144532 0-7.5 3.359375-7.5 7.5v84.824219h-32.453126v-84.824219c0-4.140625-3.355468-7.5-7.5-7.5-4.140624 0-7.5 3.359375-7.5 7.5v84.824219h-32.453124v-84.824219c0-4.140625-3.355469-7.5-7.5-7.5-4.140626 0-7.5 3.359375-7.5 7.5v84.824219h-32.453126v-84.824219c0-4.140625-3.355468-7.5-7.5-7.5-4.140624 0-7.5 3.359375-7.5 7.5v84.824219h-32.449218v-84.824219c0-4.140625-3.359375-7.5-7.503906-7.5-4.140626 0-7.5 3.359375-7.5 7.5v84.824219h-6.570313c-17.078125 0-30.972656 13.894531-30.972656 30.96875v6.574219h-84.824219c-4.140625 0-7.5 3.359374-7.5 7.5 0 4.144531 3.359375 7.5 7.5 7.5h84.824219v32.453124h-84.824219c-4.140625 0-7.5 3.359376-7.5 7.5 0 4.144532 3.359375 7.5 7.5 7.5h84.824219v32.453126h-84.824219c-4.140625 0-7.5 3.359374-7.5 7.5 0 4.144531 3.359375 7.5 7.5 7.5h84.824219v32.453124h-84.824219c-4.140625 0-7.5 3.359376-7.5 7.5 0 4.144532 3.359375 7.5 7.5 7.5h84.824219v32.453126h-84.824219c-4.140625 0-7.5 3.359374-7.5 7.5 0 4.140624 3.359375 7.5 7.5 7.5h84.824219v32.453124h-84.824219c-4.140625 0-7.5 3.359376-7.5 7.5 0 4.140626 3.359375 7.5 7.5 7.5h84.824219v6.574219c0 17.078125 13.894531 30.96875 30.96875 30.96875h6.574219v84.824219c0 4.144531 3.355468 7.5 7.5 7.5 4.144531 0 7.5-3.355469 7.5-7.5v-84.824219h32.453124v84.824219c0 4.140625 3.355469 7.5 7.5 7.5 4.144532 0 7.5-3.359375 7.5-7.5v-84.824219h32.453126v84.824219c0 4.140625 3.355468 7.5 7.5 7.5 4.140624 0 7.5-3.359375 7.5-7.5v-84.824219h32.453124v84.824219c0 4.140625 3.355469 7.5 7.5 7.5 4.140626 0 7.5-3.359375 7.5-7.5v-84.824219h32.449219v84.824219c0 4.140625 3.359375 7.5 7.5 7.5 4.144531 0 7.503907-3.359375 7.503907-7.5v-84.824219h32.449218v84.824219c0 4.140625 3.359375 7.5 7.5 7.5 4.144532 0 7.5-3.359375 7.5-7.5v-84.824219h6.574219c17.078125 0 30.972656-13.894531 30.972656-30.96875v-6.574219h84.820313c4.144531 0 7.503906-3.359374 7.503906-7.5 0-4.144531-3.359375-7.5-7.503906-7.5h-84.820313v-32.453124h84.820313c4.144531 0 7.503906-3.359376 7.503906-7.5 0-4.144532-3.359375-7.5-7.503906-7.5h-84.820313v-32.453126h84.820313c4.144531 0 7.503906-3.359374 7.503906-7.5 0-4.144531-3.359375-7.5-7.503906-7.5h-84.820313v-32.453124h84.820313c4.144531 0 7.503906-3.359376 7.503906-7.5 0-4.144532-3.359375-7.5-7.503906-7.5h-84.820313v-32.453126h84.820313c4.144531 0 7.503906-3.359374 7.503906-7.5 0-4.140624-3.359375-7.5-7.503906-7.5h-84.820313v-32.453124zm-99.824219 243.839843c0 8.804688-7.164062 15.96875-15.972656 15.96875h-265.410156c-8.804688 0-15.96875-7.164062-15.96875-15.96875v-265.414062c0-8.804688 7.164062-15.96875 15.96875-15.96875h265.414062c8.804688 0 15.96875 7.164062 15.96875 15.96875zm0 0"/><path d="m238.5 223.792969c4.140625 0 7.5-3.355469 7.5-7.5 0-4.140625-3.359375-7.5-7.5-7.5h-20.324219c-5.171875 0-9.382812 4.210937-9.382812 9.382812v75.648438c0 5.171875 4.210937 9.382812 9.382812 9.382812h75.648438c5.171875 0 9.382812-4.210937 9.382812-9.382812v-75.648438c0-5.171875-4.210937-9.382812-9.382812-9.382812h-20.320313c-4.144531 0-7.503906 3.359375-7.503906 7.5 0 4.144531 3.359375 7.5 7.503906 7.5h14.703125v64.410156h-64.410156v-64.410156zm0 0"/><path d="m375.179688 123.386719h-238.359376c-7.40625 0-13.433593 6.027343-13.433593 13.433593v238.359376c0 7.40625 6.027343 13.433593 13.433593 13.433593h238.359376c7.40625 0 13.433593-6.027343 13.433593-13.433593v-101.679688c0-4.140625-3.355469-7.5-7.5-7.5s-7.5 3.359375-7.5 7.5v100.113281h-235.222656v-235.226562h235.222656v100.113281c0 4.140625 3.355469 7.5 7.5 7.5s7.5-3.359375 7.5-7.5v-101.679688c0-7.40625-6.027343-13.433593-13.433593-13.433593zm0 0"/></svg>