<svg viewBox="0 0 512 512" xmlns="http://www.w3.org/2000/svg"><path d="m307.933594 288.640625v48.308594c0 5.523437 4.476562 10 10 10h103.09375c5.523437 0 10-4.476563 10-10v-48.308594l39.078125-54.082031c2.527343-3.496094 2.527343-8.21875 0-11.710938l-40.972657-56.703125c-1.878906-2.601562-4.894531-4.144531-8.105468-4.144531h-41.546875v-1.96875c11.640625-4.128906 20-15.242188 20-28.28125v-46.996094c3.171875-5.261718 5-11.421875 5-18.003906v-56.75c0-5.523438-4.476563-10-10-10-5.523438 0-10 4.476562-10 10v25.132812c-4.550781-2.164062-9.636719-3.382812-15-3.382812s-10.449219 1.21875-15 3.382812v-25.132812c0-5.523438-4.476563-10-10-10-5.523438 0-10 4.476562-10 10v56.75c0 6.582031 1.828125 12.742188 5 18.003906v46.996094c0 13.035156 8.359375 24.152344 20 28.28125v1.96875h-41.546875c-3.210938 0-6.226563 1.542969-8.105469 4.144531l-40.972656 56.699219c-2.527344 3.496094-2.527344 8.21875 0 11.714844zm61.546875-146.890625c-5.515625 0-10-4.484375-10-10v-31.464844c3.171875.949219 6.527343 1.464844 10 1.464844 3.472656 0 6.828125-.515625 10-1.464844v31.464844c0 5.515625-4.484375 10-10 10zm0-90c8.269531 0 15 6.730469 15 15s-6.730469 15-15 15-15-6.730469-15-15 6.726562-15 15-15zm41.546875 275.199219h-83.09375v-83.09375h31.546875v10c0 5.523437 4.476562 10 10 10 5.523437 0 10-4.476563 10-10v-10h31.546875zm-87.984375-144.949219h92.871093l33.746094 46.703125-18.632812 25.789063v-20.636719c0-5.519531-4.480469-10-10-10h-103.09375c-5.523438 0-10 4.480469-10 10v20.636719l-18.636719-25.789063zm0 0"/><path d="m472 432h-278v-93.09375c0-5.523438-4.476562-10-10-10h-103.09375c-5.523438 0-10 4.476562-10 10v93.09375h-30.90625c-22.054688 0-40 17.945312-40 40s17.945312 40 40 40h314.996094c5.523437 0 10-4.476562 10-10 0-3.152344-1.464844-5.964844-3.746094-7.796875 4.261719-6.355469 6.75-13.992187 6.75-22.203125 0-7.28125-1.964844-14.113281-5.382812-20h74.765624c-3.417968 5.886719-5.382812 12.71875-5.382812 20 0 8.207031 2.488281 15.84375 6.746094 22.199219-2.285156 1.835937-3.75 4.644531-3.75 7.800781 0 5.523438 4.476562 10 10 10h27.003906c22.054688 0 39.996094-17.945312 39.996094-40s-17.941406-40-39.996094-40zm-391.09375 20h68.476562c-3.417968 5.886719-5.382812 12.71875-5.382812 20s1.964844 14.113281 5.382812 20h-74.765624c3.417968-5.886719 5.382812-12.71875 5.382812-20s-1.964844-14.113281-5.382812-20zm83.09375 20c0-11.027344 8.972656-20 20-20s20 8.972656 20 20-8.972656 20-20 20-20-8.972656-20-20zm54.621094-20h74.761718c-3.414062 5.886719-5.382812 12.71875-5.382812 20s1.964844 14.113281 5.382812 20h-74.761718c3.414062-5.886719 5.378906-12.71875 5.378906-20s-1.964844-14.113281-5.378906-20zm-127.714844-103.09375h31.546875v10c0 5.523438 4.476563 10 10 10s10-4.476562 10-10v-10h31.546875v83.09375h-83.09375zm-70.90625 123.09375c0-11.027344 8.972656-20 20-20s20 8.972656 20 20-8.972656 20-20 20-20-8.972656-20-20zm328 0c0 11.027344-8.972656 20-20 20s-20-8.972656-20-20 8.972656-20 20-20 20 8.972656 20 20zm124 20c-11.027344 0-20-8.972656-20-20s8.972656-20 20-20 20 8.972656 20 20-8.972656 20-20 20zm0 0"/><path d="m400 492h-.007812c-5.523438 0-9.996094 4.476562-9.996094 10s4.480468 10 10.003906 10 10-4.476562 10-10-4.476562-10-10-10zm0 0"/></svg>