<svg xmlns="http://www.w3.org/2000/svg" viewBox="0 0 98.81 65.92"><defs><style>.cls-1{fill:#fff;}</style></defs><title>Asset 4</title><g id="Layer_2" data-name="Layer 2"><g id="Layer_1-2" data-name="Layer 1"><path style="fill:#D7B377;" class="cls-1" d="M90.06,13C81.35,6.48,68.38,2.85,59,1A48.38,48.38,0,0,0,39.78,1C30.43,2.85,17.46,6.48,8.75,13-.39,19.94-.47,25.69.3,28.51a10.31,10.31,0,0,0,7.86,7v8.37a1.47,1.47,0,0,0-.3.5A11.54,11.54,0,0,0,13.27,57.9c7.61,4.47,26.83,8.29,36.09,8l1,0c9.67,0,27.8-3.71,35.14-8A11.54,11.54,0,0,0,91,44.36s0-.06,0-.09V35.44a10.27,10.27,0,0,0,7.61-6.93C99.28,25.69,99.2,19.94,90.06,13ZM11.15,41.92H87.9v1.42H11.15ZM87.9,35.73v3.19H11.15V35.73ZM84,55.31c-7.09,4.16-25.8,7.87-34.66,7.59-8.76.28-27.48-3.43-34.57-7.59a8.45,8.45,0,0,1-4.32-9H88.33A8.45,8.45,0,0,1,84,55.31Zm11.6-27.59c-.7,2.58-3.4,4.63-6.58,5H9.77c-3.18-.38-5.88-2.44-6.58-5-1-3.6,1.63-8,7.36-12.28C18.81,9.22,31.33,5.73,40.37,3.91a45.41,45.41,0,0,1,18.06,0c9,1.83,21.56,5.31,29.82,11.53C94,19.76,96.6,24.12,95.62,27.72Z"/><path style="fill:#D7B377;" class="cls-1" d="M57.42,21H55.16a1.5,1.5,0,0,0-1.26,2.3,9.21,9.21,0,0,1-2.87,1V19.37h2a1.5,1.5,0,0,0,0-3H51v-2a4.05,4.05,0,1,0-3,0v2H46a1.5,1.5,0,0,0,0,3h2v4.91a9.2,9.2,0,0,1-2.87-1A1.5,1.5,0,0,0,43.89,21H41.64a1.5,1.5,0,0,0-1.5,1.5v2.26a1.5,1.5,0,0,0,2.81.72,12.27,12.27,0,0,0,13.16,0,1.5,1.5,0,0,0,2.81-.72V22.52A1.5,1.5,0,0,0,57.42,21ZM49.53,9.52a1.05,1.05,0,1,1-1.05,1.05A1.06,1.06,0,0,1,49.53,9.52Z"/></g></g></svg>
