<svg xmlns="http://www.w3.org/2000/svg" viewBox="0 0 38.75 104.98"><defs><style>.cls-1{fill:#656d78;}</style></defs><title>Asset 10</title><g id="Layer_2" data-name="Layer 2"><g id="Layer_1-2" data-name="Layer 1"><path class="cls-1" d="M38.73,103.27,30,41.68h1.05a1.5,1.5,0,0,0,1.5-1.5V32.6a1.5,1.5,0,0,0-1.5-1.5H28.82v-11h3a1.5,1.5,0,0,0,.92-2.68L23,9.86V1.5A1.5,1.5,0,0,0,21.53,0H17.19a1.5,1.5,0,0,0-1.5,1.5V9.86L6,17.4a1.5,1.5,0,0,0,.92,2.68h3v11H7.63a1.5,1.5,0,0,0-1.5,1.5v7.57a1.5,1.5,0,0,0,1.5,1.5H8.71L0,103.27A1.5,1.5,0,0,0,1.5,105H37.25a1.5,1.5,0,0,0,1.49-1.71ZM6.59,78.17H32.16l1.35,9.54H5.24ZM8.36,65.63h22l1.35,9.54H23.86V73.6a4.57,4.57,0,0,0-9.14,0v1.57H7ZM10.13,53.1H28.62L30,62.63H8.78Zm10.55-3H17.53V48.52a1.57,1.57,0,1,1,3.14,0Zm.19,25.07H17.72V73.6a1.57,1.57,0,0,1,3.14,0Zm8.73-36.49H25.83V34.1h3.76Zm-13.38,0V34.1h6.62v4.57ZM20,3V7.58a1.47,1.47,0,0,0-1.34,0V3Zm-.67,7.8,8.05,6.28H11.31ZM12.9,20.08H25.82v11H12.9Zm-3.77,14h4.08v4.57H9.13ZM27,41.68,28.2,50.1H23.67V48.52a4.57,4.57,0,1,0-9.14,0V50.1h-4l1.19-8.42ZM17.53,102v-1.57a1.57,1.57,0,1,1,3.14,0V102Zm6.14,0v-1.57a4.57,4.57,0,1,0-9.14,0V102H3.23L4.82,90.71H33.93L35.52,102Z"/><path class="cls-1" d="M19.36,30.91A5.32,5.32,0,1,0,14,25.59,5.32,5.32,0,0,0,19.36,30.91Zm0-7.63A2.32,2.32,0,1,1,17,25.59,2.32,2.32,0,0,1,19.36,23.27Z"/></g></g></svg>