<svg xmlns="http://www.w3.org/2000/svg" viewBox="0 0 95.3 79.08"><defs><style>.cls-1{fill:#ed2926;}</style></defs><title>Asset 1</title><g id="Layer_2" data-name="Layer 2"><g id="Layer_1-2" data-name="Layer 1"><path class="cls-1" d="M30.8,13.35a6.22,6.22,0,1,0-6.22,6.22A6.23,6.23,0,0,0,30.8,13.35Zm-9.44,0a3.22,3.22,0,1,1,3.22,3.22A3.22,3.22,0,0,1,21.36,13.35Z"/><path class="cls-1" d="M94.31,25.64,71.23,17.46l-.15,0-.18,0h-.36l-.16,0-.16,0-22.57,8L37,21.7a22.14,22.14,0,0,0,.89-8.9C36.55,1.33,29.65,0,24.58,0s-12,1.33-13.36,12.8a22.14,22.14,0,0,0,.89,8.9L1,25.64A1.5,1.5,0,0,0,0,27V77.58A1.5,1.5,0,0,0,2,79l22.58-8,22.58,8h0a1.43,1.43,0,0,0,1,0h0l22.57-8L93.3,79a1.5,1.5,0,0,0,2-1.41V27A1.5,1.5,0,0,0,94.31,25.64ZM14.2,13.15C15.27,4.23,19.82,3,24.58,3S33.88,4.23,35,13.15c1,8.52-5.32,18.16-10.38,23.25C19.51,31.31,13.18,21.67,14.2,13.15ZM3,28.11l10.1-3.58a45.08,45.08,0,0,0,10,14.61V68.34L3,75.46Zm23.08,11a45.08,45.08,0,0,0,10-14.6l10.1,3.58V75.46L26.08,68.34Zm23.08-11L69.23,21V68.34L49.15,75.46ZM92.3,75.46,72.23,68.34V21L92.3,28.11Z"/></g></g></svg>