<?xml version="1.0" encoding="iso-8859-1"?>
<!-- Generator: Adobe Illustrator 21.0.0, SVG Export Plug-In . SVG Version: 6.00 Build 0)  -->
<svg version="1.1" id="Capa_1" xmlns="http://www.w3.org/2000/svg" xmlns:xlink="http://www.w3.org/1999/xlink" x="0px" y="0px"
	 viewBox="0 0 480 480" style="enable-background:new 0 0 480 480;" xml:space="preserve">
<g>
	<g>
		<path d="M472,288h-48c-4.418,0-8,3.582-8,8h-24c-4.418,0-8,3.582-8,8v1.44l-32.408,6.48L269.704,304
			c-1.973-0.189-3.946,0.361-5.536,1.544l-16.728,12.472l-19-12.672c-1.516-1.025-3.337-1.499-5.16-1.344l-86.976,7.912L96,305.224
			V304c0-4.418-3.582-8-8-8H64c0-4.418-3.582-8-8-8H8c-4.418,0-8,3.582-8,8v144c0,4.418,3.582,8,8,8h48c4.418,0,8-3.582,8-8h24
			c4.418,0,8-3.582,8-8h30.464l118.56,47.432c1.618,0.642,3.4,0.743,5.08,0.288l88-24c4.205-1.103,6.721-5.406,5.618-9.611
			c-0.021-0.079-0.043-0.158-0.066-0.237l40.8-11.456c1.02,3.313,4.078,5.576,7.544,5.584h24c0,4.418,3.582,8,8,8h48
			c4.418,0,8-3.582,8-8V296C480,291.582,476.418,288,472,288z M48,432H16V304h32V432z M80,424H64V312h16V424z M248.48,463.576
			l-117.504-47.008C130.029,416.193,129.019,416,128,416H96v-94.56l38.68,6.448c0.674,0.11,1.359,0.137,2.04,0.08l85.192-7.744
			l11.896,7.928l-21.6,16.056c-12.614,8.311-16.103,25.275-7.791,37.889c5.073,7.699,13.683,12.325,22.903,12.303
			c5.587-0.01,11.045-1.681,15.68-4.8l4.656-3.504L318.92,444.4L248.48,463.576z M383.936,417.936L330.24,433l-69.44-56.856
			l12.952-9.744l-9.6-12.8l-30.4,22.904c-5.239,3.499-12.323,2.089-15.823-3.151c-1.468-2.197-2.127-4.836-1.865-7.465
			c0.375-3.539,2.35-6.71,5.36-8.608l49.816-37.024L351.2,328c0.781,0.069,1.567,0.026,2.336-0.128l30.4-6.08V417.936z M416,424h-16
			V312h16V424z M464,432h-32V304h32V432z"/>
	</g>
</g>
<g>
	<g>
		<rect x="140.03" y="429.536" transform="matrix(0.3941 -0.9191 0.9191 0.3941 -333.08 414.7641)" width="16" height="60.928"/>
	</g>
</g>
<g>
	<g>
		<path d="M184,112h-72V64c0-4.418-3.582-8-8-8H80V24c0-4.418-3.582-8-8-8h-8V0H48v16h-8c-4.418,0-8,3.582-8,8v32H8
			c-4.418,0-8,3.582-8,8v200c0,4.418,3.582,8,8,8h176c4.418,0,8-3.582,8-8V120C192,115.582,188.418,112,184,112z M48,32h16v24H48V32
			z M96,256H16V72h80V256z M176,144h-16v16h16v16h-16v16h16v64h-64V128h64V144z"/>
	</g>
</g>
<g>
	<g>
		<rect x="32" y="120" width="16" height="16"/>
	</g>
</g>
<g>
	<g>
		<rect x="64" y="120" width="16" height="16"/>
	</g>
</g>
<g>
	<g>
		<rect x="32" y="152" width="16" height="16"/>
	</g>
</g>
<g>
	<g>
		<rect x="64" y="152" width="16" height="16"/>
	</g>
</g>
<g>
	<g>
		<rect x="32" y="184" width="16" height="16"/>
	</g>
</g>
<g>
	<g>
		<rect x="128" y="144" width="16" height="16"/>
	</g>
</g>
<g>
	<g>
		<rect x="128" y="176" width="16" height="16"/>
	</g>
</g>
<g>
	<g>
		<rect x="32" y="88" width="16" height="16"/>
	</g>
</g>
<g>
	<g>
		<rect x="64" y="88" width="16" height="16"/>
	</g>
</g>
<g>
	<g>
		<path d="M344,0v12c0,6.627-5.373,12-12,12c-15.464,0-28,12.536-28,28v12h16V52c0-6.627,5.373-12,12-12c15.464,0,28-12.536,28-28V0
			H344z"/>
	</g>
</g>
<g>
	<g>
		<path d="M477.208,177.928l-56-48c-3.354-2.876-8.404-2.489-11.281,0.865C408.684,132.243,408,134.09,408,136v16.888l-26.792-22.96
			c-3.354-2.876-8.404-2.489-11.281,0.865C368.684,132.243,368,134.09,368,136v40h-16V96h8V80h-5.776
			c2.835-4.934,8.085-7.983,13.776-8c22.08-0.026,39.974-17.92,40-40V16h-16v16c0,13.255-10.745,24-24,24
			c-14.547,0.055-27.227,9.914-30.864,24H296v16h8v80h-8c-4.418,0-8,3.582-8,8v80c0,4.418,3.582,8,8,8h176c4.418,0,8-3.582,8-8v-80
			C480,181.666,478.98,179.448,477.208,177.928z M320,96h16v80h-16V96z M464,256H304v-64h72c4.418,0,8-3.582,8-8v-30.608
			l26.792,22.968c3.354,2.876,8.404,2.489,11.281-0.865c1.244-1.45,1.927-3.297,1.927-5.207v-16.896l40,34.288V256z"/>
	</g>
</g>
<g>
	<g>
		<rect x="400" y="224" width="16" height="16"/>
	</g>
</g>
<g>
	<g>
		<rect x="432" y="224" width="16" height="16"/>
	</g>
</g>
<g>
	<g>
		<rect x="400" y="192" width="16" height="16"/>
	</g>
</g>
<g>
	<g>
		<rect x="432" y="192" width="16" height="16"/>
	</g>
</g>
<g>
	<g>
		<rect x="320" y="208" width="16" height="16"/>
	</g>
</g>
<g>
	<g>
		<rect x="352" y="208" width="16" height="16"/>
	</g>
</g>
<g>
	<g>
		<polygon points="248,200 248,184 232,184 232,200 216,200 216,216 232,216 232,232 248,232 248,216 264,216 264,200 		"/>
	</g>
</g>
<g>
</g>
<g>
</g>
<g>
</g>
<g>
</g>
<g>
</g>
<g>
</g>
<g>
</g>
<g>
</g>
<g>
</g>
<g>
</g>
<g>
</g>
<g>
</g>
<g>
</g>
<g>
</g>
<g>
</g>
</svg>
