<svg viewBox="0 0 512 512.23893" xmlns="http://www.w3.org/2000/svg"><path d="m51.320312 512.238281h349.867188c28.265625-.027343 51.171875-22.933593 51.199219-51.199219 0-4.714843-3.820313-8.535156-8.535157-8.535156-4.710937 0-8.53125 3.820313-8.53125 8.535156 0 18.851563-15.28125 34.132813-34.132812 34.132813h-349.867188c-18.851562 0-34.132812-15.28125-34.132812-34.132813v-34.132812c0-18.851562 15.28125-34.132812 34.132812-34.132812 18.851563 0 34.132813 15.28125 34.132813 34.132812 0 4.710938 3.820313 8.53125 8.53125 8.53125 4.714844 0 8.535156-3.820312 8.535156-8.53125v-307.199219h25.601563v194.132813c-.003906 1.09375.207031 2.175781.613281 3.191406l26.214844 65.074219c2.59375 6.464843 8.871093 10.691406 15.835937 10.667969h25.601563c4.710937 0 8.53125-3.820313 8.53125-8.535157 0-4.710937-3.820313-8.53125-8.53125-8.53125h-7.1875l23.640625-58.675781c.40625-1.015625.613281-2.097656.613281-3.191406v-271.171875c0-23.566407-19.101563-42.667969-42.667969-42.667969-23.5625 0-42.664062 19.101562-42.664062 42.667969v59.972656h-25.601563v-17.066406c0-28.277344-22.921875-51.203125-51.199219-51.203125-28.277343 0-51.199218 22.925781-51.199218 51.203125v375.464843c.027344 28.265626 22.933594 51.171876 51.199218 51.199219zm145.066407-215.628906c-5.292969-2.910156-11.078125-4.816406-17.066407-5.613281v-145.691406c0-4.710938-3.820312-8.53125-8.535156-8.53125-4.710937 0-8.53125 3.820312-8.53125 8.53125v145.691406c-5.988281.796875-11.777344 2.703125-17.066406 5.613281v-211.035156h51.199219zm-25.601563 79.097656-23.890625-59.230469c6.328125-6.25 15.007813-9.53125 23.890625-9.039062 8.882813-.496094 17.5625 2.785156 23.894532 9.039062zm0-358.402343c14.066406-.050782 25.519532 11.296874 25.601563 25.363281v25.835937h-51.199219v-25.835937c.078125-14.066407 11.53125-25.414063 25.597656-25.363281zm-119.464844 34.132812c18.851563 0 34.132813 15.285156 34.132813 34.136719v303.273437c-19.382813-17.523437-48.882813-17.523437-68.265625 0v-303.273437c0-18.851563 15.28125-34.136719 34.132812-34.136719zm0 0"/><path d="m230.519531 118.167969v20.140625c0 8.132812 5.738281 15.136718 13.714844 16.734375l16.160156 3.234375-9.140625 13.710937c-4.484375 6.777344-3.59375 15.773438 2.136719 21.539063l14.25 14.242187c5.761719 5.726563 14.753906 6.617188 21.527344 2.132813l13.714843-9.128906 3.234376 16.152343c1.597656 7.972657 8.601562 13.714844 16.734374 13.714844h20.136719c8.132813 0 15.136719-5.742187 16.734375-13.714844l3.234375-16.152343 13.710938 9.136718c6.777343 4.492188 15.777343 3.601563 21.539062-2.132812l14.242188-14.25c5.730469-5.761719 6.621093-14.753906 2.132812-21.53125l-9.128906-13.71875 16.152344-3.234375c7.976562-1.597657 13.714843-8.601563 13.714843-16.734375v-20.140625c0-8.132813-5.738281-15.132813-13.714843-16.730469l-16.152344-3.234375 9.128906-13.714844c4.488281-6.777343 3.597657-15.773437-2.132812-21.539062l-14.25-14.242188c-5.761719-5.730469-14.757813-6.621093-21.53125-2.132812l-13.710938 9.132812-3.234375-16.15625c-1.597656-7.972656-8.601562-13.710937-16.734375-13.710937h-20.136719c-8.132812 0-15.136718 5.738281-16.734374 13.710937l-3.234376 16.15625-13.714843-9.132812c-6.777344-4.484375-15.773438-3.59375-21.535157 2.132812l-14.242187 14.25c-5.730469 5.765625-6.621094 14.757813-2.136719 21.53125l9.132813 13.714844-16.152344 3.234375c-7.976563 1.597656-13.714844 8.597656-13.714844 16.730469zm17.066407 0 16.164062-3.234375c5.578125-1.113282 10.238281-4.941406 12.417969-10.199219 2.175781-5.261719 1.589843-11.257813-1.566407-15.996094l-9.148437-13.722656 14.253906-14.242187 13.710938 9.148437c4.738281 3.15625 10.738281 3.742187 15.996093 1.5625 5.257813-2.175781 9.085938-6.835937 10.203126-12.417969l3.234374-16.160156h20.136719l3.234375 16.160156c1.117188 5.582032 4.945313 10.242188 10.203125 12.417969 5.257813 2.179687 11.257813 1.59375 15.996094-1.5625l13.71875-9.148437 14.242187 14.25-9.148437 13.714843c-3.152344 4.738281-3.742187 10.734375-1.5625 15.996094 2.179687 5.257813 6.835937 9.085937 12.417969 10.199219l16.164062 3.234375v20.140625l-16.164062 3.234375c-5.582032 1.117187-10.238282 4.941406-12.417969 10.203125-2.179687 5.257812-1.589844 11.257812 1.5625 15.992187l9.148437 13.722657-14.25 14.242187-13.710937-9.148437c-4.738281-3.15625-10.738281-3.742188-15.996094-1.5625-5.257812 2.179687-9.085937 6.835937-10.203125 12.417968l-3.234375 16.164063h-20.136719l-3.234374-16.164063c-1.117188-5.582031-4.945313-10.238281-10.203126-12.417968-5.257812-2.179688-11.257812-1.59375-15.996093 1.5625l-13.722657 9.148437-14.242187-14.25 9.148437-13.714844c3.15625-4.734375 3.742188-10.734375 1.566407-15.992187-2.179688-5.261719-6.839844-9.085938-12.417969-10.203125l-16.164062-3.234375zm0 0"/><path d="m332.917969 179.4375c28.277343 0 51.203125-22.921875 51.203125-51.199219 0-28.277343-22.925782-51.199219-51.203125-51.199219-28.277344 0-51.199219 22.921876-51.199219 51.199219.027344 28.265625 22.933594 51.171875 51.199219 51.199219zm0-85.332031c18.851562 0 34.136719 15.28125 34.136719 34.132812 0 18.851563-15.285157 34.132813-34.136719 34.132813-18.851563 0-34.132813-15.28125-34.132813-34.132813 0-18.851562 15.28125-34.132812 34.132813-34.132812zm0 0"/><path d="m498.40625 314.769531-16.152344-3.234375 9.136719-13.714844c4.488281-6.773437 3.597656-15.773437-2.132813-21.535156l-14.257812-14.242187c-5.761719-5.730469-14.757812-6.621094-21.53125-2.132813l-13.710938 9.128906-3.234374-16.152343c-1.597657-7.976563-8.601563-13.714844-16.734376-13.714844h-20.140624c-8.132813 0-15.132813 5.738281-16.730469 13.714844l-3.234375 16.152343-13.714844-9.128906c-6.777344-4.492187-15.773438-3.601562-21.539062 2.132813l-14.242188 14.25c-5.726562 5.761719-6.617188 14.753906-2.132812 21.527343l9.132812 13.714844-16.15625 3.234375c-7.972656 1.597657-13.710938 8.601563-13.710938 16.734375v20.136719c0 8.132813 5.738282 15.136719 13.710938 16.734375l16.164062 3.234375-9.140624 13.714844c-4.484376 6.773437-3.59375 15.773437 2.132812 21.535156l14.253906 14.242187c5.761719 5.726563 14.753906 6.617188 21.527344 2.132813l13.714844-9.128906 3.234375 16.152343c1.597656 7.976563 8.597656 13.714844 16.730469 13.714844h20.140624c8.132813 0 15.136719-5.738281 16.734376-13.714844l3.234374-16.152343 13.710938 9.140625c6.777344 4.488281 15.777344 3.597656 21.539062-2.132813l14.242188-14.253906c5.726562-5.761719 6.617188-14.753906 2.132812-21.527344l-9.128906-13.722656 16.152344-3.234375c7.972656-1.597656 13.714844-8.601562 13.714844-16.734375v-20.136719c0-8.132812-5.742188-15.136718-13.714844-16.734375zm-3.351562 36.871094-16.164063 3.234375c-5.582031 1.117188-10.238281 4.945312-12.417969 10.203125-2.179687 5.257813-1.59375 11.257813 1.5625 15.996094l9.148438 13.71875-14.25 14.242187-13.714844-9.144531c-4.734375-3.15625-10.734375-3.742187-15.992188-1.566406-5.261718 2.179687-9.085937 6.835937-10.203124 12.417969l-3.234376 16.164062h-20.140624l-3.234376-16.164062c-1.113281-5.582032-4.941406-10.238282-10.199218-12.417969-5.261719-2.175781-11.257813-1.589844-15.996094 1.566406l-13.722656 9.144531-14.242188-14.25 9.148438-13.710937c3.15625-4.738281 3.742187-10.738281 1.5625-15.996094-2.175782-5.257813-6.835938-9.085937-12.417969-10.203125l-16.160156-3.234375v-20.136719l16.160156-3.234375c5.582031-1.117187 10.242187-4.945312 12.417969-10.203125 2.179687-5.257812 1.59375-11.257812-1.5625-15.996094l-9.148438-13.71875 14.25-14.242187 13.714844 9.144531c4.738281 3.15625 10.734375 3.742188 15.996094 1.566406 5.257812-2.179687 9.085937-6.835937 10.199218-12.417968l3.234376-16.164063h20.140624l3.234376 16.164063c1.117187 5.582031 4.941406 10.238281 10.203124 12.417968 5.257813 2.175782 11.257813 1.589844 15.992188-1.566406l13.722656-9.144531 14.242188 14.25-9.148438 13.710937c-3.15625 4.738282-3.742187 10.738282-1.5625 15.996094 2.179688 5.257813 6.835938 9.085938 12.417969 10.203125l16.164063 3.234375zm0 0"/><path d="m409.71875 290.371094c-28.277344 0-51.199219 22.925781-51.199219 51.203125 0 28.273437 22.921875 51.199219 51.199219 51.199219s51.199219-22.925782 51.199219-51.199219c-.027344-28.265625-22.933594-51.171875-51.199219-51.203125zm0 85.335937c-18.851562 0-34.132812-15.285156-34.132812-34.132812 0-18.851563 15.28125-34.136719 34.132812-34.136719s34.132812 15.285156 34.132812 34.136719c0 18.847656-15.28125 34.132812-34.132812 34.132812zm0 0"/><path d="m221.984375 384.238281c0 4.714844 3.820313 8.535157 8.535156 8.535157h59.734375c4.710938 0 8.53125-3.820313 8.53125-8.535157 0-4.710937-3.820312-8.53125-8.53125-8.53125h-59.734375c-4.714843 0-8.535156 3.820313-8.535156 8.53125zm0 0"/><path d="m162.253906 426.90625h42.664063c4.714843 0 8.535156-3.820312 8.535156-8.535156 0-4.710938-3.820313-8.53125-8.535156-8.53125h-42.664063c-4.714844 0-8.535156 3.820312-8.535156 8.53125 0 4.714844 3.820312 8.535156 8.535156 8.535156zm0 0"/><path d="m230.519531 418.371094c0 4.714844 3.820313 8.535156 8.535157 8.535156h68.265624c4.710938 0 8.53125-3.820312 8.53125-8.535156 0-4.710938-3.820312-8.53125-8.53125-8.53125h-68.265624c-4.714844 0-8.535157 3.820312-8.535157 8.53125zm0 0"/><path d="m153.71875 452.503906c0 4.714844 3.820312 8.535156 8.535156 8.535156h170.664063c4.714843 0 8.535156-3.820312 8.535156-8.535156 0-4.710937-3.820313-8.53125-8.535156-8.53125h-170.664063c-4.714844 0-8.535156 3.820313-8.535156 8.53125zm0 0"/></svg>