<svg  viewBox="0 0 512 512.00075"  xmlns="http://www.w3.org/2000/svg"><path d="m49.089844 406.550781c-.648438 0-1.300782-.058593-1.949219-.1875-.640625-.132812-1.269531-.320312-1.871094-.570312-.601562-.25-1.179687-.558594-1.730469-.921875-.539062-.359375-1.058593-.777344-1.519531-1.238282-.460937-.46875-.878906-.980468-1.238281-1.519531-.363281-.550781-.671875-1.132812-.921875-1.730469-.25-.601562-.441406-1.230468-.570313-1.871093-.128906-.648438-.199218-1.300781-.199218-1.957031 0-2.632813 1.070312-5.210938 2.929687-7.070313.460938-.460937.980469-.871094 1.519531-1.242187.539063-.359376 1.128907-.667969 1.730469-.917969.601563-.25 1.230469-.441407 1.871094-.570313 1.289063-.261718 2.617187-.261718 3.910156 0 .640625.128906 1.269531.320313 1.867188.570313.601562.25 1.179687.558593 1.722656.917969.546875.371093 1.058594.78125 1.519531 1.242187.460938.457031.878906.976563 1.25 1.519531.359375.539063.667969 1.128906.917969 1.730469.25.597656.441406 1.226563.570313 1.867187.132812.640626.191406 1.300782.191406 1.953126 0 .65625-.058594 1.308593-.191406 1.957031-.128907.640625-.320313 1.273437-.570313 1.871093-.25.601563-.558594 1.179688-.917969 1.730469-.371094.539063-.78125 1.050781-1.25 1.519531-.460937.460938-.972656.878907-1.519531 1.238282-.542969.359375-1.121094.671875-1.722656.921875-.597657.25-1.226563.441406-1.867188.570312-.652343.128907-1.300781.1875-1.960937.1875zm0 0"/><path d="m510.085938 317.511719c0-20.046875-16.3125-36.355469-36.363282-36.355469h-29.042968v-83.59375c40.546874-16.8125 67.3125-56.480469 67.3125-100.878906 0-24.703125-8.492188-48.917969-23.917969-68.183594-8.675781-10.835938-19.152344-19.804688-31.144531-26.664062-4.097657-2.34375-9.386719-2.328126-13.46875.042968-4.121094 2.390625-6.582032 6.855469-6.582032 11.90625-.003906.539063-.207031 54.125-.207031 71.90625 0 1.03125-1.515625 2.792969-2.59375 3.605469-.324219.207031-.417969.296875-.734375.558594-10.972656 9.128906-25.046875 19.574219-30.59375 22.253906-5.621094-2.671875-19.921875-13.296875-31.054688-22.605469-.386718-.324218-.339843-.328125-.675781-.53125-.5-.4375-2.128906-2.09375-2.128906-5.007812 0-18.507813-.191406-69.640625-.195313-70.117188 0-5.3125-2.367187-9.726562-6.492187-12.117187-4.109375-2.378907-9.371094-2.300781-13.730469.207031-11.921875 6.847656-22.34375 15.785156-30.972656 26.570312-15.421875 19.261719-23.914062 43.476563-23.914062 68.175782 0 44.398437 26.761718 84.066406 67.3125 100.878906v83.59375h-18.675782l.003906-62.417969c.003907-11.167969-4.347656-21.664062-12.242187-29.558593-7.898437-7.890626-18.394531-12.234376-29.566406-12.234376-21.390625 0-39.257813 16.03125-41.566407 37.292969-.003906.050781-.007812.101563-.015624.148438l-8.199219 87.75c-2.042969 9.660156-6.988281 15.886719-15.113281 19.027343-2.359376.914063-4.691407 1.445313-6.730469 1.75-1.835938-2.179687-4.582031-3.5625-7.652344-3.5625h-33.761719c-.289062-5.261718-4.648437-9.445312-9.984375-9.445312h-167.394531c-5.523438 0-10 4.476562-10 10v154.167969c0 5.523437 4.476562 10 10 10h167.390625c5.339844 0 9.699219-4.179688 9.984375-9.445313h33.765625c3.703125 0 6.941406-2.015625 8.667969-5.011718 3.53125 1.820312 6.519531 4.765624 8.480468 8.53125 7.101563 13.628906 19.007813 21.136718 33.523438 21.136718h80.441406c6.671875 7.777344 16.566406 12.714844 27.597656 12.714844h93.878907c20.046875 0 36.355469-16.308594 36.355469-36.355469 0-10.363281-4.359376-19.726562-11.339844-26.355469 6.980468-6.628906 11.339844-15.992187 11.339844-26.355468 0-10.363282-4.359376-19.726563-11.339844-26.355469 6.980468-6.628906 11.339844-15.992187 11.339844-26.355469 0-10.363281-4.359376-19.726562-11.339844-26.355468 6.980468-6.628907 11.339844-15.996094 11.339844-26.355469zm-196.503907-220.828125c0-20.464844 6.753907-39.71875 19.527344-55.679688 4.609375-5.757812 9.839844-10.871094 15.628906-15.285156.054688 16.355469.148438 45.308594.148438 58.246094 0 12.394531 7.820312 19.265625 10.207031 21.074218 32.871094 27.453126 40.730469 27.453126 43.695312 27.453126 2.882813 0 10.535157 0 43.074219-27.035157 2.386719-1.757812 10.808594-8.742187 10.808594-19.765625 0-12.550781.101563-43.019531.164063-59.976562 5.785156 4.414062 11.015624 9.527344 15.625 15.285156 12.777343 15.960938 19.53125 35.214844 19.53125 55.683594 0 38.257812-24.320313 72.214844-60.523438 84.496094-4.058594 1.375-6.789062 5.1875-6.789062 9.46875v90.507812h-43.78125v-90.507812c0-4.28125-2.730469-8.09375-6.789063-9.46875-36.203125-12.28125-60.527344-46.238282-60.527344-84.496094zm-293.582031 233.222656h147.390625v56.648438h-81.296875c-5.523438 0-10 4.480468-10 10 0 5.523437 4.476562 10 10 10h81.296875v57.519531h-147.390625zm167.390625 9.445312h23.75v115.277344h-23.75zm84.425781 139.933594c-7.082031 0-12.101562-3.300781-15.789062-10.378906-5.28125-10.128906-14.363282-17.308594-24.886719-20.089844v-44.824218h6.261719c33.429687 0 62.050781-23.871094 68.050781-56.757813.992187-5.433594-2.609375-10.640625-8.042969-11.632813-5.433594-.992187-10.640625 2.609376-11.632812 8.042969-4.265625 23.378907-24.609375 40.347657-48.375 40.347657h-6.261719v-41.109376c14.96875-2.054687 34.023437-11.304687 39.207031-37.316406.066406-.339844.117188-.679687.148438-1.023437l8.246094-88.214844c1.230468-11.054687 10.539062-19.382813 21.679687-19.382813 5.828125 0 11.304687 2.265626 15.421875 6.382813 4.117188 4.113281 6.386719 9.585937 6.382812 15.40625l-.003906 72.417969c0 2.652344 1.054688 5.195312 2.929688 7.074218 1.875 1.875 4.417968 2.929688 7.070312 2.929688h15.167969c-2.488281 4.917969-3.894531 10.476562-3.894531 16.355469 0 10.359375 4.359375 19.726562 11.34375 26.355469-6.984375 6.628906-11.339844 15.992187-11.339844 26.355468 0 10.363282 4.355469 19.726563 11.339844 26.355469-6.980469 6.628906-11.339844 15.992187-11.339844 26.355469 0 10.363281 4.355469 19.722656 11.335938 26.351562-6.980469 6.628906-11.339844 15.996094-11.339844 26.359375 0 1.226563.0625 2.441407.183594 3.640625zm218.269532-56.351562c0 9.019531-7.339844 16.355468-16.363282 16.355468h-55.96875c-5.523437 0-10 4.476563-10 10 0 5.523438 4.476563 10 10 10h55.976563c9.015625 0 16.355469 7.335938 16.355469 16.355469s-7.335938 16.355469-16.355469 16.355469h-93.878907c-9.019531 0-16.355468-7.335938-16.355468-16.355469s7.335937-16.355469 16.355468-16.355469h.007813c5.519531 0 10-4.476562 10-10 0-5.523437-4.480469-10-10-10-9.023437 0-16.363281-7.339843-16.363281-16.355468 0-9.019532 7.339844-16.355469 16.363281-16.355469h93.863281c9.023438 0 16.363282 7.335937 16.363282 16.355469zm-16.363282-69.070313c9.023438 0 16.363282 7.339844 16.363282 16.355469 0 9.019531-7.339844 16.355469-16.363282 16.355469h-93.863281c-9.023437 0-16.363281-7.335938-16.363281-16.355469 0-9.015625 7.339844-16.355469 16.363281-16.355469h57.027344c5.523437 0 10-4.476562 10-10 0-5.519531-4.476563-10-10-10h-57.027344c-9.023437 0-16.363281-7.335937-16.363281-16.355469 0-9.015624 7.339844-16.355468 16.363281-16.355468h93.863281c9.023438 0 16.363282 7.339844 16.363282 16.355468 0 9.019532-7.339844 16.355469-16.363282 16.355469-5.523437 0-10 4.480469-10 10 0 5.523438 4.476563 10 10 10zm0 0"/></svg>