<?xml version="1.0" encoding="iso-8859-1"?>
<!-- Generator: Adobe Illustrator 19.0.0, SVG Export Plug-In . SVG Version: 6.00 Build 0)  -->
<svg version="1.1" id="Capa_1" xmlns="http://www.w3.org/2000/svg" xmlns:xlink="http://www.w3.org/1999/xlink" x="0px" y="0px"
	 viewBox="0 0 480 480" style="enable-background:new 0 0 480 480;" xml:space="preserve">
<g>
	<g>
		<path d="M407.367,110.274c-0.362-3.265-2.685-5.977-5.856-6.836l-21.625-5.883c-0.516-1.367-1.082-2.723-1.699-4.066
			l11.156-19.477c1.797-3.133,1.27-7.081-1.285-9.633l-12.488-12.484c-2.549-2.562-6.502-3.089-9.633-1.285l-19.473,11.156
			c-1.344-0.617-2.703-1.187-4.066-1.703l-5.883-21.625c-0.861-3.171-3.574-5.494-6.84-5.855c-6.462-0.711-12.983-0.711-19.445,0
			c-3.268,0.36-5.982,2.683-6.844,5.855l-5.883,21.625c-1.363,0.516-2.723,1.086-4.066,1.703l-19.473-11.156
			c-3.131-1.805-7.085-1.278-9.633,1.285l-12.484,12.484c-2.555,2.552-3.082,6.5-1.285,9.633l11.156,19.476
			c-0.617,1.344-1.187,2.703-1.703,4.066l-21.625,5.879c-3.171,0.859-5.493,3.571-5.855,6.836c-0.715,6.466-0.715,12.991,0,19.457
			c0.362,3.265,2.685,5.977,5.855,6.836l21.625,5.883c0.516,1.363,1.086,2.723,1.703,4.066l-11.156,19.477
			c-1.797,3.133-1.27,7.081,1.285,9.633l12.484,12.484c2.554,2.552,6.5,3.079,9.633,1.285l19.473-11.156
			c1.344,0.617,2.703,1.187,4.066,1.703l5.883,21.625c0.861,3.171,3.574,5.494,6.84,5.855c6.462,0.708,12.983,0.708,19.445,0
			c3.268-0.36,5.982-2.683,6.844-5.855l5.883-21.625c1.363-0.516,2.723-1.086,4.066-1.703l19.473,11.156
			c3.134,1.792,7.079,1.266,9.633-1.285l12.488-12.484c2.555-2.552,3.082-6.5,1.285-9.633l-11.156-19.476
			c0.617-1.344,1.184-2.699,1.699-4.066l21.625-5.883c3.171-0.859,5.493-3.571,5.856-6.836
			C408.082,123.262,408.082,116.738,407.367,110.274z M391.855,122.613l-20.285,5.512c-2.683,0.728-4.795,2.797-5.578,5.465
			c-0.965,3.246-2.273,6.379-3.902,9.348c-1.332,2.44-1.301,5.397,0.082,7.809l10.246,17.887l-3.836,3.836l-17.883-10.246
			c-2.408-1.384-5.363-1.417-7.801-0.086c-2.971,1.63-6.107,2.939-9.355,3.906c-2.666,0.784-4.734,2.894-5.465,5.574l-5.52,20.285
			c-1.734,0.063-3.474,0.063-5.219,0l-5.515-20.281c-0.728-2.683-2.797-4.795-5.465-5.578c-3.248-0.967-6.384-2.276-9.355-3.906
			c-2.438-1.331-5.393-1.298-7.801,0.086l-17.883,10.246l-3.836-3.836l10.246-17.887c1.38-2.409,1.413-5.362,0.086-7.801
			c-1.63-2.971-2.939-6.107-3.906-9.355c-0.783-2.668-2.895-4.737-5.578-5.465l-20.285-5.516c-0.062-1.738-0.062-3.479,0-5.223l0,0
			l20.285-5.512c2.683-0.728,4.795-2.797,5.578-5.465c0.967-3.248,2.276-6.384,3.906-9.355c1.327-2.439,1.294-5.392-0.086-7.801
			l-10.246-17.886l3.836-3.836l17.883,10.246c2.409,1.38,5.362,1.413,7.801,0.086c2.971-1.63,6.107-2.939,9.355-3.906
			c2.668-0.783,4.737-2.895,5.465-5.578l5.516-20.281c1.742-0.063,3.483-0.063,5.223,0l5.516,20.281
			c0.728,2.683,2.797,4.795,5.465,5.578c3.248,0.967,6.384,2.276,9.355,3.906c2.439,1.327,5.392,1.294,7.801-0.086l17.883-10.246
			l3.836,3.836l-10.246,17.887c-1.383,2.412-1.414,5.368-0.082,7.809c1.629,2.968,2.937,6.102,3.902,9.348
			c0.783,2.668,2.895,4.737,5.578,5.465l20.285,5.516C391.918,119.129,391.918,120.87,391.855,122.613z"/>
	</g>
</g>
<g>
	<g>
		<path d="M320.047,88c-17.673,0-32,14.327-32,32c0.02,17.665,14.335,31.98,32,32c17.673,0,32-14.327,32-32S337.72,88,320.047,88z
			 M320.047,136c-8.837,0-16-7.163-16-16c0.009-8.833,7.167-15.991,16-16c8.837,0,16,7.163,16,16S328.883,136,320.047,136z"/>
	</g>
</g>
<g>
	<g>
		<rect x="400" y="32" width="16" height="16"/>
	</g>
</g>
<g>
	<g>
		<rect x="432" y="32" width="16" height="16"/>
	</g>
</g>
<g>
	<g>
		<path d="M208,424H8c-4.418,0-8,3.582-8,8v40c0,4.418,3.582,8,8,8h200c4.418,0,8-3.582,8-8v-40C216,427.582,212.418,424,208,424z
			 M200,464H16v-24h184V464z"/>
	</g>
</g>
<g>
	<g>
		<path d="M472,0H168c-4.418,0-8,3.582-8,8v180.99c-45.89-26.465-104.545-10.717-131.01,35.173
			c-26.465,45.89-10.717,104.545,35.173,131.01c45.89,26.465,104.545,10.717,131.01-35.173c8.417-14.596,12.841-31.151,12.827-48h88
			v48h-56c-4.418,0-8,3.582-8,8v40c0,4.418,3.582,8,8,8h160c4.418,0,8-3.582,8-8v-40c0-4.418-3.582-8-8-8h-48v-48h120
			c4.418,0,8-3.582,8-8V8C480,3.582,476.418,0,472,0z M112,352c-44.183,0-80-35.817-80-80c0-44.183,35.817-80,80-80s80,35.817,80,80
			C191.951,316.162,156.162,351.951,112,352z M392,336v24H248v-24H392z M312,320v-48h24v48H312z M464,256H206.555
			c-0.918-5.444-2.308-10.797-4.156-16H464V256z M464,224H195.01c-5.076-8.73-11.491-16.609-19.01-23.35V16h288V224z"/>
	</g>
</g>
<g>
	<g>
		<path d="M112,240c-17.673,0-32,14.327-32,32c0,17.673,14.327,32,32,32s32-14.327,32-32C143.98,254.335,129.665,240.02,112,240z
			 M112,288c-8.837,0-16-7.163-16-16s7.163-16,16-16s16,7.163,16,16C127.991,280.833,120.833,287.991,112,288z"/>
	</g>
</g>
<g>
	<g>
		<rect x="16" y="352" width="16" height="56"/>
	</g>
</g>
<g>
	<g>
		<rect x="184" y="352" width="16" height="56"/>
	</g>
</g>
<g>
	<g>
		<rect x="152" y="376" width="16" height="32"/>
	</g>
</g>
<g>
	<g>
		<rect x="48" y="376" width="16" height="32"/>
	</g>
</g>
<g>
	<g>
		<rect x="80" y="392" width="16" height="16"/>
	</g>
</g>
<g>
	<g>
		<rect x="120" y="392" width="16" height="16"/>
	</g>
</g>
<g>
	<g>
		<path d="M468.285,389.09c-15.633-15.594-40.937-15.594-56.57,0l-22.625,22.625c-15.578,15.663-15.51,40.99,0.154,56.568
			c15.602,15.518,40.809,15.519,56.413,0.002l22.629-22.629C483.882,430.026,483.882,404.72,468.285,389.09z M450.273,395.79
			l-15.929,15.929l-11.316-11.316C430.22,393.258,441.129,391.411,450.273,395.79z M434.344,456.973
			c-9.361,9.385-24.558,9.404-33.943,0.043s-9.404-24.558-0.043-33.943c0.015-0.015,0.03-0.03,0.045-0.045l11.313-11.313
			l33.943,33.943L434.344,456.973z M456.973,434.344l-0.002,0.002l-11.315-11.315l15.93-15.93
			C465.964,416.244,464.117,427.153,456.973,434.344z"/>
	</g>
</g>
<g>
</g>
<g>
</g>
<g>
</g>
<g>
</g>
<g>
</g>
<g>
</g>
<g>
</g>
<g>
</g>
<g>
</g>
<g>
</g>
<g>
</g>
<g>
</g>
<g>
</g>
<g>
</g>
<g>
</g>
</svg>
